<svg width="24" height="24" viewBox="0 0 24 24" xmlns="http://www.w3.org/2000/svg">
<path fill-rule="evenodd" clip-rule="evenodd" d="M12 7C14.7595 7 17 9.2405 17 12C17 14.7595 14.7595 17 12 17C9.2405 17 7 14.7595 7 12C7 9.2405 9.2405 7 12 7ZM12 9C13.6549 9 15 10.3451 15 12C15 13.6549 13.6549 15 12 15C10.3451 15 9 13.6549 9 12C9 10.3451 10.3451 9 12 9Z"/>
<path fill-rule="evenodd" clip-rule="evenodd" d="M12 20C7.04227 20 2.51808 15.988 0 12C3.06473 8.211 6.65551 4 12 4C17.3445 4 20.9353 8.21093 24 12C21.4819 15.988 16.9577 20 12 20ZM12 6C15.8252 6 18.6524 8.69695 21.5014 12.1074C20.4616 13.5039 19.1737 14.8347 17.7389 15.8778C15.9011 17.2137 13.9344 18 12 18C10.0656 18 8.09884 17.2137 6.26112 15.8778C4.82625 14.8347 3.53841 13.504 2.49863 12.1074C5.34767 8.69699 8.17488 6 12 6Z"/>
</svg>
