<svg width="24" height="24" viewBox="0 0 24 24" xmlns="http://www.w3.org/2000/svg">
<g clip-path="url(#clip0_1012_240)">
<path fill-rule="evenodd" clip-rule="evenodd" d="M1.43104 9.63158C0.518217 8.99697 0 8.27099 0 7.5C0 5.01645 5.3772 3 12 3C18.6228 3 24 5.01645 24 7.5C24 8.27099 23.4818 8.99697 22.569 9.63158C23.4818 10.3367 24 11.1433 24 12C24 12.9104 23.4147 13.7644 22.3924 14.5C23.4147 15.2356 24 16.0896 24 17C24 19.7595 18.6228 22 12 22C5.3772 22 0 19.7595 0 17C0 16.0896 0.585322 15.2356 1.60758 14.5C0.585322 13.7644 0 12.9104 0 12C0 11.1433 0.518217 10.3367 1.43104 9.63158ZM12 5C15.1347 5 17.8861 5.48062 19.7813 6.19133C20.7363 6.54946 21.3706 6.92763 21.7301 7.24614C21.8587 7.36006 21.93 7.44494 21.9685 7.49999C21.93 7.55504 21.8587 7.63994 21.7301 7.75386C21.4763 7.97871 21.0856 8.2333 20.5417 8.48959C18.3651 7.5702 15.3411 7 12 7C8.65895 7 5.63489 7.5702 3.45829 8.48959C2.91445 8.2333 2.52373 7.97871 2.26993 7.75386C2.14133 7.63993 2.07002 7.55505 2.03154 7.5C2.07002 7.44495 2.14133 7.36007 2.26993 7.24614C2.62944 6.92763 3.26368 6.54946 4.2187 6.19133C6.11393 5.48062 8.86528 5 12 5ZM20.495 10.677C21.0186 10.9539 21.3999 11.2304 21.6533 11.4799C21.8304 11.6543 21.9192 11.7899 21.9612 11.8753C21.9997 11.9535 22 11.9902 22 12C22 12.0098 21.9997 12.0465 21.9612 12.1247C21.9192 12.2101 21.8304 12.3457 21.6533 12.5201C21.3749 12.7942 20.9423 13.1009 20.3361 13.4048C18.1766 12.5353 15.2371 12 12 12C8.76291 12 5.8234 12.5353 3.66392 13.4048C3.05774 13.1009 2.62512 12.7942 2.3467 12.5201C2.16955 12.3457 2.08077 12.2101 2.03878 12.1247C2.00034 12.0465 2 12.0098 2 12C2 11.9902 2.00034 11.9535 2.03878 11.8753C2.08077 11.7899 2.16955 11.6543 2.3467 11.4799C2.60015 11.2304 2.98138 10.9539 3.505 10.677C5.67805 11.4941 8.68278 12 12 12C15.3172 12 18.322 11.4941 20.495 10.677ZM17.1598 9.52852C15.6496 9.8244 13.8948 10 12 10C10.1052 10 8.35044 9.8244 6.84018 9.52852C8.3459 9.19733 10.1011 9 12 9C13.8989 9 15.6541 9.19733 17.1598 9.52852ZM22.0104 7.57558C22.0101 7.57559 22.0085 7.57186 22.0066 7.56436C22.0098 7.57181 22.0108 7.57556 22.0104 7.57558ZM22.0066 7.43564C22.0084 7.42814 22.0101 7.42441 22.0104 7.42442C22.0108 7.42444 22.0098 7.42819 22.0066 7.43564ZM1.98957 7.42442C1.98992 7.42441 1.99156 7.42816 1.99345 7.43569C1.99016 7.4282 1.98921 7.42444 1.98957 7.42442ZM1.99345 7.56431C1.99156 7.57184 1.98992 7.57559 1.98957 7.57558C1.98921 7.57556 1.99016 7.5718 1.99345 7.56431ZM21.6533 16.4799C21.3749 16.2058 20.9423 15.8991 20.3361 15.5952C18.1766 16.4647 15.2371 17 12 17C8.76291 17 5.82339 16.4647 3.66392 15.5952C3.05774 15.8991 2.62512 16.2058 2.3467 16.4799C2.16956 16.6543 2.08077 16.7899 2.03878 16.8753C2.00034 16.9535 2 16.9902 2 17C2 17.0098 2.00034 17.0465 2.03878 17.1247C2.08077 17.2101 2.16956 17.3457 2.3467 17.5201C2.71239 17.8801 3.34409 18.2963 4.28568 18.6887C6.16007 19.4697 8.88704 20 12 20C15.113 20 17.8399 19.4697 19.7143 18.6887C20.6559 18.2963 21.2876 17.8801 21.6533 17.5201C21.8304 17.3457 21.9192 17.2101 21.9612 17.1247C21.9997 17.0465 22 17.0098 22 17C22 16.9902 21.9997 16.9535 21.9612 16.8753C21.9192 16.7899 21.8304 16.6543 21.6533 16.4799ZM12 15C13.8437 15 15.552 14.814 17.028 14.5C15.552 14.186 13.8437 14 12 14C10.1563 14 8.44798 14.186 6.972 14.5C8.44798 14.814 10.1563 15 12 15Z"/>
</g>
<defs>
<clipPath id="clip0_1012_240">
<rect width="24" height="24" fill="white"/>
</clipPath>
</defs>
</svg>
