<svg width="24" height="24" viewBox="0 0 24 24" xmlns="http://www.w3.org/2000/svg">
<path d="M7.96501 0.660004L6.84001 1.14L10.245 9.36L3.96002 3.06L3.075 3.94501L9.39001 10.23L1.14001 6.825L0.675 7.95L8.925 11.37H0V12.6H8.925L0.675 16.02L1.14001 17.145L9.39001 13.74L3.075 20.04L3.96002 20.925L10.245 14.625L6.84001 22.845L7.96501 23.31L11.385 15.09V24H12.6V15.075L16.02 23.31L17.16 22.845L13.755 14.625L20.055 20.925L20.925 20.04L14.61 13.74L22.845 17.145L23.325 16.02L15.075 12.6H24V11.37H15.075L23.325 7.95L22.845 6.825L14.61 10.23L20.925 3.94501L20.055 3.06L13.755 9.36L17.16 1.14L16.02 0.660004L12.6 8.91V0H11.385V8.89501L7.96501 0.660004Z"/>
</svg>
