<svg width="98" height="56" viewBox="0 0 98 56"
	xmlns="http://www.w3.org/2000/svg">
	<path d="M14 3H10V13H14V3Z" />
	<path d="M84 53L88 53L88 43L84 43L84 53Z" />
	<path d="M10 13H6V23H10V13Z" />
	<path d="M88 43L92 43L92 33L88 33L88 43Z" />
	<path d="M6 23H2V33H6V23Z" />
	<path d="M92 33L96 33L96 23L92 23L92 33Z" />
	<path d="M10 33H6V43H10V33Z" />
	<path d="M88 23L92 23L92 13L88 13L88 23Z" />
	<path d="M14 43H10V53H14V43Z" />
	<path d="M84 13L88 13L88 3L84 3L84 13Z" />
	<path d="M18 3H14V13H18V3Z" />
	<path d="M80 53L84 53L84 43L80 43L80 53Z" />
	<path d="M14 13H10V23H14V13Z" />
	<path d="M84 43L88 43L88 33L84 33L84 43Z" />
	<path d="M10 23H6V33H10V23Z" />
	<path d="M88 33L92 33L92 23L88 23L88 33Z" />
	<path d="M14 33H10V43H14V33Z" />
	<path d="M84 23L88 23L88 13L84 13L84 23Z" />
	<path d="M18 43H14V53H18V43Z" />
	<path d="M80 13L84 13L84 3L80 3L80 13Z" />
	<path d="M58.9817 21.5615C58.9817 18.1898 58.2278 15.7778 56.7202 14.3254C55.2125 12.873 52.9121 12.1468 49.8188 12.1468C47.1154 12.1468 44.919 12.6914 43.2294 13.7807C41.5398 14.8441 40.695 16.4262 40.695 18.527H33.8326C34.1185 14.2735 35.7041 11.1223 38.5894 9.07339C41.5008 7.02446 45.3219 6 50.0528 6C51.7943 6 53.354 6.10374 54.7317 6.31123C56.1353 6.49278 57.565 6.88182 59.0206 7.47834C60.4763 8.07486 61.685 8.8659 62.6468 9.85146C63.6346 10.837 64.4404 12.1857 65.0642 13.8974C65.6881 15.6092 66 17.6062 66 19.8886V24.9072H58.9817V21.5615ZM32 37.7065C32 34.9573 32.7148 32.6101 34.1445 30.6649C35.6002 28.6938 37.5237 27.2414 39.9151 26.3077C42.3326 25.374 45.1009 24.9072 48.2202 24.9072H58.9817V31.015H50.2867C43.3723 31.015 39.9151 33.2714 39.9151 37.7843C39.9151 39.7294 40.643 41.2207 42.0986 42.2582C43.5543 43.2697 45.4258 43.7754 47.7133 43.7754C48.935 43.7754 50.1957 43.542 51.4954 43.0752C52.7951 42.5824 54.0038 41.908 55.1216 41.0522C56.2653 40.1704 57.1881 39.0551 57.8899 37.7065C58.6177 36.3578 58.9817 34.9054 58.9817 33.3492V31.015H66V48.7162H58.9817V43.4642H58.8257C57.63 45.4612 55.9144 47.0563 53.6789 48.2493C51.4694 49.4164 49.039 50 46.3876 50C42.0726 50 38.5894 48.9237 35.9381 46.771C33.3127 44.6183 32 41.5968 32 37.7065Z" />
</svg>
