<svg viewBox="0 0 24 24" xmlns="http://www.w3.org/2000/svg">
 <path fill-rule="evenodd" clip-rule="evenodd" d="M12 1L6.40766 10.7866C6.05276 11.2571 5.75591 11.774 5.52772 12.3265L0 22H24L18.4723 12.3265C18.2441 11.774 17.9472 11.2571 17.5923 10.7866L12 1ZM8.07544 11.8991L7.33471 13.1954C7.11851 13.755 7 14.3635 7 15H17C17 14.3635 16.8815 13.755 16.6653 13.1954L15.9246 11.8991C15.0094 10.7418 13.5924 10 12 10C10.4076 10 8.99064 10.7418 8.07544 11.8991ZM16.585 17H7.41501C8.18554 18.767 9.94687 20 12 20C14.0531 20 15.8145 18.767 16.585 17ZM3.44636 20L5.24649 16.8498C5.57755 18.0633 6.22656 19.145 7.09867 20H3.44636ZM20.5536 20H16.9013C17.7734 19.145 18.4224 18.0633 18.7535 16.8498L20.5536 20ZM12 8C12.6351 8 13.2503 8.08436 13.8351 8.2425L12 5.03113L10.1649 8.2425C10.7497 8.08436 11.3649 8 12 8Z"/>
</svg>
