<svg width="24" height="24" viewBox="0 0 24 24" fill="none" xmlns="http://www.w3.org/2000/svg">
<path d="M6 22H2V18H6V22Z" fill="#050505" style="fill:#050505;fill:color(display-p3 0.0196 0.0196 0.0196);fill-opacity:1;"/>
<path d="M22 22H18V18H22V22Z" fill="#050505" style="fill:#050505;fill:color(display-p3 0.0196 0.0196 0.0196);fill-opacity:1;"/>
<path d="M10 18H6V14H10V18Z" fill="#050505" style="fill:#050505;fill:color(display-p3 0.0196 0.0196 0.0196);fill-opacity:1;"/>
<path d="M18 18H14V14H18V18Z" fill="#050505" style="fill:#050505;fill:color(display-p3 0.0196 0.0196 0.0196);fill-opacity:1;"/>
<path d="M6 14H2V10H6V14Z" fill="#050505" style="fill:#050505;fill:color(display-p3 0.0196 0.0196 0.0196);fill-opacity:1;"/>
<path d="M22 14H18V10H22V14Z" fill="#050505" style="fill:#050505;fill:color(display-p3 0.0196 0.0196 0.0196);fill-opacity:1;"/>
<path d="M10 10H6V6H10V10Z" fill="#050505" style="fill:#050505;fill:color(display-p3 0.0196 0.0196 0.0196);fill-opacity:1;"/>
<path d="M18 10H14V6H18V10Z" fill="#050505" style="fill:#050505;fill:color(display-p3 0.0196 0.0196 0.0196);fill-opacity:1;"/>
<path d="M6 6H2V2H6V6Z" fill="#050505" style="fill:#050505;fill:color(display-p3 0.0196 0.0196 0.0196);fill-opacity:1;"/>
<path d="M22 6H18V2H22V6Z" fill="#050505" style="fill:#050505;fill:color(display-p3 0.0196 0.0196 0.0196);fill-opacity:1;"/>
</svg>
