<svg width="48" height="48" viewBox="0 0 48 48" fill="none" xmlns="http://www.w3.org/2000/svg">
<g clip-path="url(#clip0_1971_26026)">
<path fill-rule="evenodd" clip-rule="evenodd" d="M24 1C10.752 1 0 11.2861 0 24C0 36.7139 10.752 47 24 47C37.312 47 48 36.7139 48 24C48 11.2861 37.312 1 24 1ZM22 5.09299C19.4927 5.32763 17.1333 5.9989 15 7.02174L15 21.1133L22 17.0718L22 5.09299ZM11 9.55793C8.43177 11.6513 6.43678 14.349 5.24494 17.4002L11 20.5243L11 9.55793ZM4.19026 21.379C4.06477 22.2373 4 23.1124 4 24C4 29.7248 6.69444 34.9325 11 38.4421L11 25.1132L10.9684 25.0586L4.19026 21.379ZM15 40.9783C17.6923 42.2691 20.7446 43 24 43C28.757 43 33.0641 41.4563 36.4526 38.8928L15 27.2471L15 40.9783ZM39.5195 36.0063C42.3339 32.7141 44 28.5192 44 24C44 19.3525 42.2381 15.0481 39.2772 11.7156L26 19.3812V28.6672L39.5195 36.0063ZM36.165 8.89366C33.3109 6.8144 29.8332 5.44745 26 5.09207V14.7624L36.165 8.89366ZM22 26.4958V21.6906L17.7105 24.1672L22 26.4958Z" fill="#F0622C"/>
</g>
<defs>
<clipPath id="clip0_1971_26026">
<rect width="48" height="48" fill="white"/>
</clipPath>
</defs>
</svg>
