<svg width="48" height="48" viewBox="0 0 48 48" fill="none" xmlns="http://www.w3.org/2000/svg">
<path fill-rule="evenodd" clip-rule="evenodd" d="M23 1.0196C19.0608 1.17433 15.3666 2.23895 12.14 4H12V4.07699C4.82638 8.0538 0 15.4868 0 24C0 36.7025 10.7452 47 24 47C37.2548 47 48 36.7025 48 24C48 11.6185 37.7911 1.52202 25 1.0196V1H23V1.0196ZM24 45C30.0029 45 35.4126 42.7163 39.3655 39.0288L14 25.5225V42.7129C16.9935 44.1738 20.3894 45 24 45ZM25 29.1138L40.8181 37.5365C44.0566 33.87 46 29.1376 46 24C46 18.6195 43.8685 13.6835 40.3503 9.9508L25 18.6396V29.1138ZM25 16.3415V3.02121C30.3473 3.2486 35.1738 5.2906 38.8475 8.50327L25 16.3415ZM23 17.4736L14 22.5679V5.28706C16.7155 3.96182 19.7623 3.15889 23 3.02121V17.4736ZM15.4651 24.0368L23 19.7717V28.0489L15.4651 24.0368ZM12 6.39389V22.1917L3.09415 17.4497C4.66692 12.8788 7.84117 8.98405 12 6.39389ZM2 24C2 22.427 2.18217 20.892 2.5279 19.414L12 24.4576V41.6061C5.96249 37.8459 2 31.3361 2 24Z" fill="#F0622C"/>
</svg>
