<svg width="183" height="34" viewBox="0 0 183 34" fill="none" xmlns="http://www.w3.org/2000/svg">
<path d="M64.0319 7.20515C62.167 7.19628 60.3479 7.78351 58.8395 8.88133V7.67545H56.9481V34H58.8395V25.2332C60.1214 25.9719 61.577 26.3549 63.0561 26.3426C68.3088 26.3426 71.9953 22.2667 71.9953 16.4181C71.9953 10.9072 68.8027 7.20515 64.044 7.20515H64.0319ZM63.1645 24.57C61.6421 24.5825 60.1471 24.1645 58.8516 23.3641V10.7746C60.2518 9.59992 62.0243 8.96293 63.8512 8.97781C67.4654 8.97781 69.9834 11.9443 69.9834 16.3337C69.9834 21.3623 67.2847 24.6061 63.1163 24.6061L63.1645 24.57ZM82.609 7.24133C77.525 7.24133 74.3445 10.9796 74.3445 16.9849C74.3445 22.7008 77.6094 26.3788 82.6693 26.3788C84.9725 26.4383 87.2387 25.7902 89.1628 24.5217L88.199 22.8696C86.5835 23.9162 84.702 24.477 82.7777 24.4855C78.8261 24.4855 76.3564 21.6758 76.2962 17.1055H89.5483C89.5483 16.7196 89.6327 16.1167 89.6327 15.8031C89.6327 10.5937 86.8858 7.24133 82.6211 7.24133H82.609ZM82.6211 8.92957C86.0787 8.92957 87.6569 12.1252 87.7051 15.3328H76.4648C76.7419 11.5584 79.2719 8.92957 82.6693 8.92957H82.6211ZM27.8415 7.22927C22.5889 7.22927 19.7095 10.9313 19.7095 16.8764C19.7095 22.8214 22.5768 26.5235 27.8415 26.5235C33.1063 26.5235 35.9374 22.6888 35.9374 16.8764C35.9374 10.7384 32.8533 7.22927 27.8415 7.22927ZM27.8415 24.7629C23.9984 24.7629 21.7094 21.1452 21.7094 16.8764C21.7094 12.6075 24.0587 8.98986 27.8415 8.98986C31.4558 8.98986 33.9737 12.2578 33.9737 16.8764C33.9737 21.4949 31.504 24.7629 27.8415 24.7629ZM46.3584 7.22927C41.1057 7.22927 38.2264 10.9313 38.2264 16.8764C38.2264 22.8214 41.0937 26.5235 46.3584 26.5235C51.6231 26.5235 54.4302 22.6164 54.4302 16.8161C54.4302 10.6781 51.346 7.16897 46.3343 7.16897L46.3584 7.22927ZM46.3343 24.7026C42.4912 24.7026 40.2022 21.0849 40.2022 16.8161C40.2022 12.5472 42.5514 8.92957 46.3343 8.92957C49.9485 8.92957 52.4664 12.1975 52.4664 16.8161C52.4664 21.4346 49.9967 24.7026 46.3343 24.7026ZM101.005 9.02604C100.606 8.9784 100.203 8.95424 99.8007 8.95369C98.6575 8.96337 97.5407 9.29848 96.5807 9.91987C95.6207 10.5413 94.8572 11.4233 94.3793 12.4628V26.005H92.4879V7.59103H94.3793V10.0028C94.9918 9.10857 95.8139 8.37826 96.7738 7.87581C97.7336 7.37336 98.8018 7.1141 99.885 7.12074C100.429 7.12741 100.971 7.19619 101.499 7.32574L101.005 9.02604ZM18.4928 24.1117C16.4844 25.7233 13.9557 26.5427 11.3848 26.415C4.33706 26.415 0 20.904 0 13.1502C0 5.39632 4.6021 0.00599297 11.3848 0.00599297C13.7998 -0.0736477 16.1742 0.64231 18.1434 2.04395L17.276 3.68395C15.6054 2.54799 13.6333 1.93896 11.6137 1.93542C5.87913 1.93542 2.18058 6.31279 2.04805 12.8728C1.91553 19.7705 5.66228 24.4494 11.6137 24.4494C13.7497 24.4773 15.8359 23.8038 17.5531 22.532L18.4928 24.1117ZM119.956 0.440113H122.004L113.101 26.005H110.475L101.511 0.428054H103.74L111.872 24.172L119.956 0.440113ZM125.004 4.81749C124.649 4.81749 124.309 4.67647 124.058 4.42544C123.807 4.17442 123.667 3.83396 123.667 3.47895C123.667 3.30792 123.7 3.13857 123.766 2.98056C123.831 2.82255 123.927 2.67898 124.048 2.55805C124.168 2.43711 124.312 2.34118 124.47 2.27573C124.628 2.21028 124.797 2.17659 124.968 2.17659C125.311 2.17658 125.64 2.31213 125.883 2.55377C126.127 2.79541 126.266 3.12358 126.269 3.46689C126.272 3.63951 126.241 3.81107 126.178 3.97177C126.115 4.13247 126.021 4.27916 125.901 4.40346C125.782 4.52776 125.639 4.62723 125.48 4.69621C125.322 4.76518 125.152 4.80229 124.98 4.80543L125.004 4.81749ZM124.028 7.61515H125.98V26.0532H124.1L124.028 7.61515ZM182.88 14.2958V25.9808H180.988V15.0073C180.988 12.5955 180.988 11.064 179.904 9.97869C179.046 9.24546 177.933 8.88138 176.808 8.96575C174.798 9.08751 172.86 9.75907 171.206 10.9072V26.005H169.35V7.59103H171.242V8.98986C172.955 7.85816 174.949 7.22752 177 7.16897C177.797 7.10267 178.598 7.20122 179.355 7.45848C180.111 7.71574 180.807 8.1262 181.398 8.66428C182.771 10.039 183 11.4378 183 14.2717L182.88 14.2958ZM158.05 7.18103C152.797 7.18103 149.918 10.8831 149.918 16.8281C149.918 22.7732 152.785 26.4753 158.05 26.4753C163.315 26.4753 166.146 22.6405 166.146 16.8281C166.146 10.6902 163.074 7.18103 158.05 7.18103ZM158.05 24.7147C154.219 24.7147 151.918 21.097 151.918 16.8281C151.918 12.5593 154.255 8.94163 158.05 8.94163C161.664 8.94163 164.182 12.2096 164.182 16.8281C164.182 21.4467 161.712 24.7147 158.05 24.7147ZM141.28 21.0246C141.28 24.3529 138.774 26.415 134.75 26.415C132.609 26.4787 130.502 25.867 128.726 24.6664L129.69 23.0988C131.146 24.0928 132.856 24.6455 134.618 24.6905C137.557 24.6905 139.316 23.3882 139.316 21.1814C139.316 19.867 138.509 18.5526 136.16 17.6723L133.304 16.587C130.401 15.5258 129.57 13.8737 129.57 11.8599C129.57 9.08634 131.979 7.15691 135.449 7.15691C137.352 7.08395 139.23 7.60664 140.822 8.65222L139.882 10.2199C138.617 9.37655 137.137 8.91219 135.618 8.88133C133.642 8.88133 131.509 9.80987 131.509 11.8599C131.509 13.6084 132.811 14.4887 134.292 14.9952L136.581 15.8152C140.087 17.0211 141.34 18.6973 141.34 21.0126L141.28 21.0246ZM145.713 4.78131C145.359 4.78131 145.019 4.64029 144.768 4.38927C144.517 4.13824 144.376 3.79778 144.376 3.44278C144.373 3.27174 144.403 3.10175 144.466 2.94252C144.528 2.78328 144.621 2.63792 144.74 2.51474C144.859 2.39156 145 2.29297 145.157 2.2246C145.314 2.15624 145.482 2.11944 145.653 2.1163C145.993 2.11306 146.32 2.24428 146.564 2.4814C146.808 2.71853 146.948 3.04237 146.954 3.38248C146.957 3.5551 146.927 3.72666 146.864 3.88736C146.8 4.04805 146.706 4.19474 146.587 4.31904C146.467 4.44334 146.324 4.54282 146.166 4.61179C146.008 4.68077 145.838 4.71788 145.665 4.72102L145.713 4.78131ZM144.713 7.53074H146.593V26.005H144.713V7.53074Z" fill="#1E1E1E"/>
</svg>
