<svg width="187" height="47" viewBox="0 0 187 47" fill="none" xmlns="http://www.w3.org/2000/svg">
<path d="M0.333374 17.1885V28.3971L9.46654 22.9429L0.333374 17.1885Z" fill="#1E1E1E"/>
<path d="M21.0687 17.1428V28.4336L30.2762 22.946L21.0687 17.1428Z" fill="#1E1E1E"/>
<path d="M9.81491 23.623V34.3468L0.697144 29.085L9.81491 23.623Z" fill="#1E1E1E"/>
<path d="M9.80721 35.6958V46.3837L0.697144 40.9166L9.80721 35.6958Z" fill="#1E1E1E"/>
<path d="M10.5193 35.6958V46.3837L19.773 40.9089L10.5193 35.6958Z" fill="#1E1E1E"/>
<path d="M9.81235 11.3213V22.258L0.697144 16.4754L9.81235 11.3213Z" fill="#1E1E1E"/>
<path d="M30.5503 11.2998V22.2365L21.4326 16.4539L30.5503 11.2998Z" fill="#1E1E1E"/>
<path d="M20.3031 5.63867V15.7826L11.0648 10.6311L20.3031 5.63867Z" fill="#1E1E1E"/>
<path d="M19.7499 4.98732L10.5192 9.97721L10.5321 0L19.7499 4.98732Z" fill="#1E1E1E"/>
<path d="M30.2224 10.6286L21.0687 15.7878L21.0841 5.63867L30.2224 10.6286Z" fill="#1E1E1E"/>
<path d="M30.599 23.623V34.3263L21.4325 29.0927L30.599 23.623Z" fill="#1E1E1E"/>
<path d="M51.9191 23.623V34.3263L42.3498 29.0927L51.9191 23.623Z" fill="#1E1E1E"/>
<path d="M31.4363 23.623V34.3263L40.8003 29.067L31.4363 23.623Z" fill="#1E1E1E"/>
<path d="M0.333313 5.63867V15.7852L9.43056 10.6337L0.333313 5.63867Z" fill="#1E1E1E"/>
<path d="M9.7534 0L9.74314 9.94128L0.697205 4.98732L9.7534 0Z" fill="#1E1E1E"/>
<path d="M0.333313 29.7617V40.2341L9.43056 35.0287L0.333313 29.7617Z" fill="#1E1E1E"/>
<path d="M21.0687 29.7617V40.2341L30.1685 35.0287L21.0687 29.7617Z" fill="#1E1E1E"/>
<path d="M20.3005 29.7844V40.2311L11.0647 35.0437L20.3005 29.7844Z" fill="#1E1E1E"/>
<path d="M41.8043 29.7617V40.2341L51.3325 35.0287L41.8043 29.7617Z" fill="#1E1E1E"/>
<path d="M62.1375 5.68408L62.1221 16.3873L53.0813 11.1537L62.1375 5.68408Z" fill="#1E1E1E"/>
<path d="M52.7174 11.823V22.2902L61.8249 17.0874L52.7174 11.823Z" fill="#1E1E1E"/>
<path d="M62.589 29.7617V40.2161L53.0813 35.0723L62.589 29.7617Z" fill="#1E1E1E"/>
<path d="M52.7174 35.7185V46.3807L62.2303 40.8957L52.7174 35.7185Z" fill="#1E1E1E"/>
<path d="M41.036 29.7844V40.2311L31.8003 35.0437L41.036 29.7844Z" fill="#1E1E1E"/>
<path d="M51.8499 35.6958V46.3554L42.3499 40.8961L51.8499 35.6958Z" fill="#1E1E1E"/>
<path d="M41.8043 17.1428V28.3438L51.3325 22.9485L41.8043 17.1428Z" fill="#1E1E1E"/>
<path d="M41.1488 17.1428V28.3438L31.8001 22.9485L41.1488 17.1428Z" fill="#1E1E1E"/>
<path d="M95.4616 19.1779V5.88867H100.336C103.978 5.88867 106.976 8.88594 106.976 12.5282C106.976 16.1704 103.978 19.1677 100.336 19.1677L95.4616 19.1779ZM100.336 16.5226C102.522 16.5226 104.32 14.7242 104.32 12.5384C104.32 10.3526 102.522 8.55422 100.336 8.55422H98.1221V16.5226H100.336Z" fill="#1E1E1E"/>
<path d="M121.08 16.9547H114.246L113.04 19.1662H110.013L117.663 5.16113L125.329 19.1764H122.301L121.08 16.9547ZM119.628 14.302L117.663 10.6923L115.698 14.302H119.628Z" fill="#1E1E1E"/>
<path d="M103.434 37.1012C103.431 39.2844 101.633 41.079 99.4502 41.079C97.6064 41.079 95.9919 39.7993 95.5712 38.0042L98.1213 37.1012C98.1213 37.102 98.1213 37.103 98.1213 37.1038C98.1213 37.8329 98.7211 38.4327 99.4502 38.4327C100.179 38.4327 100.779 37.8329 100.779 37.1038C100.779 36.3746 100.179 35.7748 99.4502 35.7748C99.4487 35.7748 99.4471 35.7748 99.4459 35.7748C97.2601 35.7748 95.4616 33.9764 95.4616 31.7906C95.4616 29.6051 97.2601 27.8064 99.4459 27.8064C101.297 27.8064 102.916 29.0963 103.329 30.9004L100.779 31.8034C100.779 31.8027 100.779 31.8016 100.779 31.8009C100.779 31.0718 100.179 30.4719 99.4502 30.4719C98.7211 30.4719 98.1213 31.0718 98.1213 31.8009C98.1213 32.53 98.7211 33.1298 99.4502 33.1298C101.63 33.1326 103.425 34.9215 103.434 37.1012Z" fill="#1E1E1E"/>
<path d="M112.852 27.8064H110.195V41.0854H112.852V27.8064Z" fill="#1E1E1E"/>
<path d="M131.248 38.4291C129.995 40.1031 128.022 41.0905 125.931 41.0905C122.287 41.0905 119.289 38.0922 119.289 34.4485C119.289 30.8049 122.287 27.8064 125.931 27.8064C128.164 27.8064 130.252 28.9319 131.479 30.7967L129.37 32.4258C128.655 31.2188 127.351 30.476 125.948 30.476C123.765 30.476 121.969 32.2724 121.969 34.4551C121.969 36.6381 123.765 38.4342 125.948 38.4342C126.926 38.4342 127.871 38.0732 128.601 37.4208V36.6512H125.494V34.0087H131.248V38.4291Z" fill="#1E1E1E"/>
<path d="M138.206 27.8064H138.914L147.059 35.5619V27.8064H149.714V41.0854H148.988L140.861 33.3299V41.0854H138.206V27.8064Z" fill="#1E1E1E"/>
<path d="M166.553 38.8724H159.718L158.512 41.0839H155.485L163.135 27.0789L170.801 41.0839H167.774L166.553 38.8724ZM165.101 36.2146L163.135 32.6024L161.17 36.2146H165.101Z" fill="#1E1E1E"/>
<path d="M176.595 27.8064H179.25V38.425H186.333V41.0803H176.584L176.595 27.8064Z" fill="#1E1E1E"/>
</svg>
