<svg width="64" height="64" viewBox="0 0 64 64" fill="none" xmlns="http://www.w3.org/2000/svg">
<path d="M64 -0.235352H0V63.7646H64V-0.235352Z" fill="#1E1E1E"/>
<path d="M33.6019 46.814H31.6949V55.8753H33.6019V46.814Z" fill="white"/>
<path d="M45.8844 46.5681C43.2392 46.5681 41.0862 48.6387 41.0862 51.3448C41.0862 54.0304 43.2392 56.1214 45.8844 56.1214C48.55 56.1214 50.6825 54.0304 50.6825 51.3448C50.6825 48.6387 48.55 46.5681 45.8844 46.5681ZM45.8844 54.2149C44.285 54.2149 43.0547 53.0053 43.0547 51.3448C43.0547 49.6842 44.285 48.4747 45.8844 48.4747C47.4838 48.4747 48.714 49.6842 48.714 51.3448C48.714 52.9848 47.4838 54.2149 45.8844 54.2149Z" fill="white"/>
<path d="M37.6004 53.1487V46.814H35.6935V53.3537C35.6935 55.0552 36.6572 55.8548 38.5232 55.8548H40.9632V53.9892H38.5847C37.867 53.9892 37.6004 53.8047 37.6004 53.1487Z" fill="white"/>
<path d="M59.5198 49.9301C59.5198 47.962 58.228 46.814 56.116 46.814H51.9741V55.8753H53.881V48.7H56.075C56.8747 48.7 57.5104 49.11 57.5104 49.9916C57.5104 50.8321 56.9772 51.1601 56.3621 51.4266C56.2391 51.4881 55.993 51.5906 55.8495 51.6931C55.2958 52.0416 55.1933 52.6977 55.6649 53.3127L57.6129 55.8753H60.1145L57.6539 52.8412C58.9047 52.2056 59.5198 51.3651 59.5198 49.9301Z" fill="white"/>
<path d="M9.20103 46.5681C6.41237 46.5681 4.44391 48.7412 4.44391 51.3448C4.44391 54.1739 6.61742 56.1214 9.44709 56.1214C11.231 56.1214 12.5023 55.4449 13.425 54.3994L12.0512 53.2308C11.272 53.9484 10.5544 54.2764 9.46759 54.2764C8.09377 54.2764 6.80196 53.5794 6.55591 52.1853H13.8146C13.8351 51.8778 13.8556 51.6728 13.8556 51.4883C13.8556 48.8642 12.2973 46.5681 9.20103 46.5681ZM6.5354 50.6478C6.74045 49.2537 7.82721 48.4337 9.18053 48.4337C10.6569 48.4337 11.6001 49.3357 11.7436 50.6478H6.5354Z" fill="white"/>
<path d="M27.5733 50.6068C26.4251 50.1967 25.3588 49.8277 25.3588 49.2332C25.3588 48.8027 25.8099 48.3927 26.5276 48.3927C27.3068 48.3927 28.3115 48.7617 29.1522 49.2332L29.9929 47.6342C29.0087 46.9576 27.7579 46.5681 26.6096 46.5681C24.7847 46.5681 23.3288 47.5727 23.3288 49.3972C23.3288 50.6478 24.4771 51.4883 25.974 51.9393C27.1632 52.3083 28.209 52.6363 28.209 53.3128C28.209 53.8049 27.7579 54.2764 26.8762 54.2764C25.974 54.2764 24.8462 53.9484 23.78 53.1693L22.8162 54.7479C24.0465 55.6294 25.4613 56.0804 26.7326 56.0804C28.7011 56.0804 30.198 55.2399 30.198 53.1898C30.198 51.8163 29.0702 51.1193 27.5733 50.6068Z" fill="white"/>
<path d="M19.3714 50.6068C18.2231 50.1967 17.1569 49.8277 17.1569 49.2332C17.1569 48.8027 17.608 48.3927 18.3256 48.3927C19.1048 48.3927 20.1096 48.7617 20.9503 49.2332L21.791 47.6342C20.8067 46.9576 19.5559 46.5681 18.4077 46.5681C16.5827 46.5681 15.1269 47.5727 15.1269 49.3972C15.1269 50.6478 16.2751 51.4883 17.772 51.9393C18.9613 52.3083 20.007 52.6363 20.007 53.3128C20.007 53.8049 19.5559 54.2764 18.6742 54.2764C17.772 54.2764 16.6442 53.9484 15.578 53.1693L14.6143 54.7479C15.8445 55.6294 17.2594 56.0804 18.5307 56.0804C20.4991 56.0804 21.996 55.2399 21.996 53.1898C21.996 51.8163 20.8477 51.1193 19.3714 50.6068Z" fill="white"/>
<path d="M32 9.02783C21.6661 9.02783 12.6603 14.7911 7.78381 23.3436C12.6603 31.9167 21.6869 37.6594 32 37.6594C42.3339 37.6594 51.3398 31.9167 56.2162 23.3436C51.3605 14.7911 42.3339 9.02783 32 9.02783ZM32 34.3368C25.8163 34.3368 20.8983 29.3735 20.8983 23.3641C20.8983 17.2317 25.9408 12.3914 32 12.3914C34.9674 12.3914 37.748 13.54 39.8646 15.6115C40.6946 16.4318 41.2549 17.1497 41.2549 17.1497L33.4941 24.8408C32.6848 25.6407 31.3568 25.6407 30.5267 24.8408C29.7174 24.041 29.7174 22.7283 30.5267 21.9079L35.1957 17.2933C34.2204 16.801 33.1413 16.5344 32 16.5344C28.1819 16.5344 25.0693 19.5903 25.0693 23.3846C25.0693 27.1995 28.2026 30.2349 32 30.2349C35.1127 30.2349 38.2668 28.0814 38.8271 24.3896H43.0395C42.4792 30.3579 37.4367 34.3368 32 34.3368Z" fill="white"/>
</svg>
