<svg width="131" height="65" viewBox="0 0 131 65" fill="none" xmlns="http://www.w3.org/2000/svg">
<path d="M130.333 64.8633L0.333313 64.8672V-0.0145062H130.333V64.8633Z" fill="#1E1E1E"/>
<path d="M69.1807 6.75975C37.4394 7.48292 28.3168 34.0388 28.3168 34.0388L28.2256 34.3091C28.2256 34.3091 40.2685 56.2043 66.6278 55.8257C97.9189 55.3751 107.405 28.4567 107.405 28.4567C93.0846 5.68221 69.1807 6.75975 69.1807 6.75975ZM61.2799 52.8133C38.4317 47.9399 32.5036 26.4694 32.5036 26.4694L32.6375 26.2489C32.6375 26.2489 45.949 4.88901 73.5241 10.5215C73.5241 10.5215 94.3935 14.299 102.106 36.9894C102.106 36.9894 88.4024 58.596 61.2799 52.8133Z" fill="white"/>
<path d="M67.7926 41.1434C61.1619 41.1434 56.5308 37.3679 56.5308 31.9598C56.5308 26.5475 61.1619 22.7658 67.7926 22.7658C69.8485 22.7658 71.7457 23.1343 73.4386 23.8617L73.7005 23.9736L65.1886 29.2213C64.4031 29.7062 63.8634 30.4575 63.6684 31.3345C63.4818 32.198 63.6502 33.0793 64.1475 33.8185C65.1946 35.3649 67.3682 35.8073 68.9978 34.808C68.9978 34.808 84.8157 25.0812 85.0796 24.9232C81.7983 19.8434 75.1941 16.6906 67.7926 16.6906C56.8939 16.6906 48.3621 23.3987 48.3621 31.9598C48.3621 40.5243 56.8939 47.2307 67.7926 47.2307C78.571 47.2307 87.0626 40.6309 87.2045 32.182H79.0418C78.9038 37.466 74.3092 41.1434 67.7926 41.1434Z" fill="white"/>
</svg>
