<svg width="186" height="48" viewBox="0 0 186 48" fill="none" xmlns="http://www.w3.org/2000/svg">
<path d="M14.6742 19.8142C14.6742 17.0392 16.9157 14.78 19.6716 14.78C22.4264 14.78 24.6679 17.0392 24.6679 19.8142C24.6679 22.5914 22.4261 24.8515 19.6716 24.8515C16.9154 24.8515 14.674 22.5914 14.674 19.8142H14.6742ZM27.8662 19.8142C27.8662 15.263 24.1884 11.5607 19.6716 11.5607C15.1534 11.5607 11.4781 15.263 11.4781 19.8142C11.4781 24.3652 15.1534 28.071 19.6716 28.071C24.1884 28.071 27.8662 24.3652 27.8662 19.8142ZM8.49102 32.6788C8.49102 32.2266 8.29798 31.8142 8.00152 31.5131C6.47674 29.9771 5.26764 28.1532 4.44339 26.1459C3.61915 24.1386 3.19595 21.9873 3.19801 19.815C3.19801 10.6661 10.5893 3.22068 19.6694 3.22068C28.7539 3.22068 36.1441 10.6661 36.1441 19.815C36.1441 24.3914 34.2963 28.5401 31.3124 31.5456L17.4006 45.5578L19.6681 47.8419L33.5877 33.818C37.1426 30.2316 39.341 25.2827 39.341 19.8156C39.341 8.87241 30.5362 0.00195315 19.6694 0.00195315C8.80806 0.0014077 0 8.87214 0 19.815C0 25.2778 2.2052 30.2387 5.74407 33.807C6.04757 34.1106 6.4434 34.2879 6.89147 34.2879C7.31535 34.2879 7.72191 34.1185 8.02184 33.8168C8.32176 33.5151 8.49052 33.1058 8.49102 32.6788ZM29.5358 29.7161C32.0478 27.1751 33.6024 23.6752 33.6024 19.815C33.6024 12.0764 27.3528 5.78104 19.6705 5.78104C11.9904 5.78104 5.73838 12.0764 5.73838 19.815C5.73838 23.6752 7.32223 27.2092 9.80764 29.7161C10.1009 30.0107 10.5059 30.2038 10.9548 30.2038C11.379 30.2035 11.7857 30.0336 12.0856 29.7314C12.3855 29.4293 12.5541 29.0195 12.5543 28.5922C12.5543 28.131 12.3594 27.7195 12.0545 27.4263C10.1279 25.4695 8.93666 22.7799 8.93666 19.815C8.93666 13.8524 13.7513 9.00032 19.6705 9.00032C25.5906 9.00032 30.4087 13.8524 30.4087 19.815C30.4087 22.796 29.2028 25.4979 27.2602 27.456L13.3441 41.4731L15.6059 43.748L29.5355 29.7161H29.5358Z" fill="#1E1E1E"/>
<path d="M98.6675 16.9969L101.578 8.0752H103.083L105.133 14.1161H105.157L107.183 8.0752H108.687L111.585 16.9969H109.447L107.891 11.7968H107.865L106.018 16.9969H104.233L102.387 11.7968H102.362L100.805 16.9969H98.6675Z" fill="#1E1E1E"/>
<path d="M116.752 13.7591C116.752 12.765 116.246 12.0638 115.411 12.0638C114.576 12.0638 114.057 12.765 114.057 13.7593C114.057 14.7286 114.576 15.4923 115.411 15.4923C116.245 15.4923 116.752 14.7286 116.752 13.7593V13.7591ZM112.134 13.7593C112.134 11.7968 113.475 10.407 115.411 10.407C117.32 10.407 118.675 11.7968 118.675 13.7593C118.675 15.7603 117.32 17.1493 115.411 17.1493C113.475 17.1493 112.134 15.7603 112.134 13.7593ZM119.614 13.7593C119.614 11.7968 120.867 10.407 122.777 10.407C123.574 10.407 124.473 10.5731 125.206 11.2991L124.029 12.4718C123.738 12.1663 123.333 12.0513 122.891 12.0513C122.056 12.0513 121.55 12.765 121.55 13.7593C121.55 14.7537 122.056 15.4923 122.891 15.4923C123.333 15.4923 123.738 15.3777 124.029 15.0853L125.206 16.257C124.473 16.9833 123.573 17.1491 122.777 17.1491C120.867 17.1491 119.614 15.7603 119.614 13.7591" fill="#1E1E1E"/>
<path d="M126.323 10.5605H128.169V12.9946H128.448L129.954 10.5605H132.067L130.017 13.7468L132.32 16.9969H130.068L128.372 14.5492H128.169V16.9969H126.323V10.5605Z" fill="#1E1E1E"/>
<path d="M137.383 13.7591C137.383 12.765 136.877 12.0638 136.041 12.0638C135.207 12.0638 134.688 12.765 134.688 13.7593C134.688 14.7286 135.207 15.4923 136.041 15.4923C136.877 15.4923 137.383 14.7286 137.383 13.7593V13.7591ZM132.764 13.7593C132.764 11.7968 134.105 10.407 136.041 10.407C137.951 10.407 139.306 11.7968 139.306 13.7593C139.306 15.7603 137.951 17.1493 136.041 17.1493C134.105 17.1493 132.764 15.7603 132.764 13.7593Z" fill="#1E1E1E"/>
<path d="M143.902 15.6458C144.421 15.6458 144.598 15.3785 144.598 15.0854C144.598 14.7785 144.421 14.4731 143.902 14.4731H142.51V15.6458H143.902ZM143.56 13.224C144.028 13.224 144.395 13.0331 144.395 12.549C144.395 12.0649 144.028 11.9116 143.56 11.9116H142.51V13.224H143.56ZM140.663 16.9969V10.5605H143.965C145.218 10.5605 146.306 11.0321 146.306 12.3071C146.306 12.8935 145.85 13.4026 145.357 13.5425V13.5685C146.103 13.773 146.571 14.3081 146.571 15.0979C146.571 16.0413 145.876 16.9969 144.244 16.9969H140.663Z" fill="#1E1E1E"/>
<path d="M147.498 13.759C147.498 11.7968 148.752 10.4072 150.661 10.4072C151.458 10.4072 152.357 10.573 153.09 11.299L151.914 12.4718C151.622 12.1663 151.219 12.0512 150.775 12.0512C149.94 12.0512 149.434 12.765 149.434 13.7593C149.434 14.7537 149.94 15.4922 150.775 15.4922C151.219 15.4922 151.622 15.3777 151.914 15.0853L153.09 16.257C152.357 16.9832 151.458 17.149 150.661 17.149C148.752 17.149 147.498 15.7603 147.498 13.759Z" fill="#1E1E1E"/>
<path d="M154.206 10.5606H156.052V12.9947H156.332L157.837 10.5606H159.95L157.9 13.7469L160.203 16.997H157.951L156.255 14.5492H156.052V16.997H154.206V10.5606ZM161.078 10.5606H162.925V14.1922H162.951L165.392 10.5606H166.986V16.997H165.139V13.3637H165.114L162.684 16.9964H161.078V10.5601V10.5606Z" fill="#1E1E1E"/>
<path d="M169.533 8.61042L170.495 7.65479C170.671 7.99788 171.026 8.46942 171.621 8.46942C172.379 8.46942 172.646 7.9976 172.835 7.65479L173.747 8.61042C173.505 9.10678 172.798 9.88406 171.658 9.88406C170.533 9.88406 169.824 9.10678 169.533 8.61042H169.533ZM168.762 10.5604H170.608V14.1921H170.634L173.075 10.5604H174.669V16.9957H172.823V13.3635H172.798L170.368 16.9954H168.762V10.5604Z" fill="#1E1E1E"/>
<path d="M100.437 24.1968H101.69L103.26 28.1729H103.284L104.866 24.1965H106.08L107.713 30.6329H105.866L105.17 27.4207H105.145L103.829 30.6332H102.626L101.374 27.4082H101.349L100.628 30.6332H98.8434L100.438 24.1968H100.437Z" fill="#1E1E1E"/>
<path d="M112.638 26.6818C112.562 25.9684 112.182 25.5228 111.474 25.5228C110.828 25.5228 110.424 26.0194 110.31 26.6818H112.638ZM108.336 27.4081C108.336 25.4456 109.639 24.0432 111.486 24.0432C113.232 24.0432 114.574 25.115 114.574 27.5739V28.0193H110.336C110.476 28.8478 111.197 29.1159 111.791 29.1159C112.373 29.1159 112.892 28.8353 113.119 28.5048L114.308 29.7023C113.536 30.4534 112.65 30.7853 111.589 30.7853C109.918 30.7853 108.337 29.5875 108.337 27.4081H108.336ZM117.032 25.8148H115.159V24.1968H120.902L120.309 25.8148H118.879V30.632H117.032V25.8148H117.032Z" fill="#1E1E1E"/>
<path d="M125.03 29.1034C125.878 29.1034 126.472 28.3774 126.472 27.383C126.472 26.4399 125.878 25.7003 125.03 25.7003C124.183 25.7003 123.576 26.4399 123.576 27.383C123.576 28.3774 124.183 29.1034 125.03 29.1034ZM123.65 32.9898H121.804V24.1968H123.65V24.8341H123.676C123.955 24.4899 124.498 24.0432 125.473 24.0432C127.143 24.0432 128.395 25.433 128.395 27.3956C128.395 29.3707 127.143 30.7856 125.473 30.7856C124.498 30.7856 123.955 30.3399 123.676 29.9955H123.65V32.99V32.9898Z" fill="#1E1E1E"/>
<path d="M133.953 27.3956C133.953 26.4012 133.447 25.7 132.612 25.7C131.777 25.7 131.258 26.4012 131.258 27.3956C131.258 28.3648 131.777 29.1285 132.612 29.1285C133.447 29.1285 133.953 28.3648 133.953 27.3956ZM129.335 27.3956C129.335 25.433 130.676 24.0432 132.612 24.0432C134.522 24.0432 135.877 25.433 135.877 27.3956C135.877 29.3966 134.522 30.7856 132.612 30.7856C130.676 30.7856 129.335 29.3966 129.335 27.3956Z" fill="#1E1E1E"/>
<path d="M137.233 24.197H142.8V30.6334H140.952V25.8151H139.079V30.6334H137.233V24.197Z" fill="#1E1E1E"/>
<path d="M148.749 27.3956C148.749 26.4012 148.244 25.7 147.408 25.7C146.573 25.7 146.054 26.4012 146.054 27.3956C146.054 28.3648 146.573 29.1285 147.408 29.1285C148.244 29.1285 148.749 28.3648 148.749 27.3956ZM144.131 27.3956C144.131 25.433 145.472 24.0432 147.408 24.0432C149.319 24.0432 150.673 25.433 150.673 27.3956C150.673 29.3966 149.319 30.7856 147.408 30.7856C145.472 30.7856 144.131 29.3966 144.131 27.3956Z" fill="#1E1E1E"/>
<path d="M151.422 30.6334V29.2436C151.485 29.2697 151.625 29.3071 151.739 29.3071C152.219 29.3071 152.333 28.9891 152.434 27.8548C152.612 25.5356 152.612 24.197 152.612 24.197H157.748V30.6334H155.926V25.8162H154.231C154.206 26.3003 154.218 26.8992 154.155 27.7152C154.016 29.7026 153.712 30.7605 152.131 30.7605C151.764 30.7605 151.422 30.6334 151.422 30.6334" fill="#1E1E1E"/>
<path d="M159.534 24.1968H161.38V27.8285H161.406L163.848 24.1968H165.442V30.6332H163.595V26.9999H163.57L161.14 30.6327H159.534V24.1963V24.1968Z" fill="#1E1E1E"/>
<path d="M168.445 25.8148H166.572V24.1968H172.315L171.722 25.8148H170.291V30.632H168.445V25.8148H168.445ZM176.885 26.6821C176.809 25.9684 176.429 25.523 175.721 25.523C175.077 25.523 174.672 26.0194 174.558 26.6821H176.885ZM172.584 27.4081C172.584 25.4456 173.888 24.0432 175.734 24.0432C177.479 24.0432 178.821 25.115 178.821 27.5739V28.0193H174.583C174.723 28.8478 175.444 29.1159 176.038 29.1159C176.62 29.1159 177.139 28.8353 177.367 28.5048L178.556 29.7023C177.784 30.4534 176.898 30.7853 175.835 30.7853C174.165 30.7853 172.584 29.5875 172.584 27.4081" fill="#1E1E1E"/>
<path d="M180.153 24.197H182V26.5673H184.088V24.197H185.934V30.6334H184.088V28.1979H182V30.6334H180.153V24.197H180.153Z" fill="#1E1E1E"/>
<path d="M65.919 23.3285H64.8044L65.8895 20.2003L69.003 25.3628L72.1166 20.2L73.2031 23.3285H72.0873V25.2207H79.5327V23.3285H78.0864L73.1557 10.7776L69.003 18.109L64.8509 10.7776L59.9199 23.3285H58.476V25.2207H65.9193V23.3285H65.919Z" fill="#1E1E1E"/>
<path d="M88.6735 19.8151C88.6735 8.87192 79.8679 0.00146484 69.0041 0.00146484C58.1419 0.00146484 49.3347 8.87192 49.3347 19.8151C49.3318 22.4131 49.8377 24.9862 50.8234 27.3869C51.8091 29.7877 53.2552 31.969 55.079 33.806C55.2288 33.9593 55.4074 34.0809 55.6044 34.1636C55.8015 34.2464 56.0129 34.2886 56.2264 34.2879C57.1085 34.2879 57.8238 33.5652 57.8238 32.6788C57.8238 32.2277 57.6329 31.8151 57.3351 31.5129C55.8105 29.9768 54.6016 28.1529 53.7774 26.1457C52.9532 24.1385 52.53 21.9873 52.5319 19.8151C52.5319 10.6673 59.9207 3.22183 69.0041 3.22183C78.0875 3.22183 85.4777 10.6673 85.4777 19.8151C85.4777 24.3915 83.6288 28.5402 80.6449 31.5435L66.7345 45.5562L69.0008 47.8403L82.9216 33.8183C86.4762 30.2319 88.6738 25.283 88.6738 19.8148" fill="#1E1E1E"/>
</svg>
