<svg width="179" height="33" viewBox="0 0 179 33" fill="none" xmlns="http://www.w3.org/2000/svg">
<path d="M71.2233 23.9005C70.6583 24.2002 70.0403 24.3909 69.4025 24.4624C68.3462 24.631 67.2764 24.7043 66.2065 24.6815H59.5819C56.8895 24.6815 55.0687 24.3196 54.1292 23.729C53.6382 23.3297 53.255 22.8175 53.0134 22.2377C52.7718 21.6578 52.6794 21.0284 52.7443 20.4051V19.9765C52.8123 19.7219 52.8385 19.4582 52.8218 19.1955L57.6643 19.1193V19.405C57.6643 20.0527 57.8095 20.4813 58.1679 20.6146C58.725 20.9099 59.3587 21.0358 59.9887 20.9765H66.3033C66.7616 21.0143 67.2209 20.9147 67.6205 20.6908C67.911 20.4813 67.9788 20.1193 67.9788 19.6241C67.9906 19.4355 67.9574 19.2468 67.8817 19.0731C67.806 18.8995 67.69 18.7456 67.543 18.624C66.9387 18.3387 66.2763 18.1922 65.606 18.1954L57.858 18.0525C55.9694 17.9859 54.5844 17.624 53.984 16.9858C53.2171 15.9062 52.8732 14.5903 53.0155 13.2809C52.9777 12.5332 53.0761 11.7849 53.306 11.0712C53.4181 10.4909 53.7251 9.96431 54.1777 9.57589C54.6274 9.13184 55.1888 8.81305 55.8047 8.65203C57.0282 8.40986 58.2769 8.31392 59.5238 8.3663H67.0781C68.5089 8.25141 69.9383 8.60285 71.1458 9.36636C71.5837 9.78954 71.9211 10.3027 72.1338 10.8691C72.3464 11.4356 72.4291 12.0412 72.3758 12.6427V13.4999H67.5333V13.4237C67.5563 13.2009 67.5338 12.9758 67.4673 12.7615C67.4008 12.5473 67.2915 12.3483 67.1459 12.176C66.7905 11.9205 66.3552 11.7958 65.9159 11.8236H60.2405C59.5814 11.7511 58.9145 11.8462 58.3035 12.0998C58.1444 12.1996 58.0184 12.3429 57.941 12.5121C57.8636 12.6813 57.8381 12.869 57.8677 13.0523C57.8677 13.5475 57.9451 13.8333 58.2357 14.0047C58.6991 14.2761 59.2266 14.4238 59.7659 14.4333L67.911 14.5762C69.7996 14.5762 71.1168 15.0048 71.8431 15.7858C72.5695 16.5668 73.0828 17.8906 73.0828 19.7955C73.1311 20.6707 72.9823 21.5455 72.647 22.3575C72.3536 23.0046 71.8716 23.5515 71.262 23.9291L71.2233 23.9005ZM113.644 11.0712C114.034 12.3553 114.204 13.6943 114.147 15.0333C114.147 17.1668 113.789 18.7383 113.063 19.6622C112.336 20.586 111.019 21.0146 109.276 21.0146H100.036V24.4624H90.1381L88.2011 20.9765H78.8938L77.044 24.4624H71.6591L80.5403 8.57584H86.8646L95.0194 23.4719V8.57584H107.532C108.407 8.53904 109.283 8.58689 110.147 8.7187C110.732 8.78919 111.299 8.96005 111.823 9.22349C112.601 9.65045 113.234 10.293 113.644 11.0712ZM86.1382 16.9858L83.5911 12.357L81.1214 16.9858H86.1382ZM109.13 14.8524C109.164 14.1903 109.013 13.5317 108.695 12.9475C108.505 12.7879 108.285 12.6677 108.047 12.594C107.809 12.5203 107.558 12.4948 107.31 12.5189H100.036V16.9858H107.31C107.558 17.0158 107.81 16.9931 108.049 16.9192C108.288 16.8452 108.508 16.7218 108.695 16.5572C109.028 16.0522 109.182 15.4525 109.13 14.8524ZM131.609 18.7669C132.351 18.9179 133.028 19.2904 133.546 19.8336C133.993 20.369 134.228 21.046 134.205 21.7385V24.4624H129.256V22.4718C129.282 22.2609 129.256 22.047 129.18 21.848C129.104 21.6491 128.981 21.4711 128.82 21.3289C128.286 21.049 127.68 20.9266 127.077 20.9765H119.571V24.4624H114.661V8.57584H127.687C130.237 8.57584 131.984 8.93459 132.927 9.65209C133.895 10.4331 134.302 12.2141 134.302 14.2047C134.391 15.3059 134.191 16.4111 133.721 17.4144C133.48 17.768 133.168 18.0701 132.805 18.3025C132.443 18.5349 132.036 18.6929 131.609 18.7669ZM129.256 14.7762C129.293 14.132 129.142 13.4909 128.82 12.9285C128.631 12.7689 128.41 12.6486 128.172 12.575C127.934 12.5013 127.683 12.4758 127.435 12.4999H119.571V16.9858H127.425C127.948 17.0325 128.468 16.879 128.878 16.5572C129.155 16.0046 129.285 15.3917 129.256 14.7762ZM150.563 17.9859C150.617 18.7634 150.356 19.5303 149.837 20.1193C148.995 20.575 148.034 20.7739 147.076 20.6908H144.2C143.076 20.7956 141.945 20.598 140.926 20.1193C140.413 19.7669 140.2 19.0526 140.2 17.9859V8.57584H135.251V19.4812C135.251 21.3861 135.764 22.7576 136.926 23.5386C138.089 24.3196 140.055 24.6815 143.038 24.6815H148.568C151.115 24.6815 152.926 24.2529 153.953 23.4719C154.979 22.6909 155.473 21.3289 155.473 19.4812V8.57584H150.563V17.9859ZM173.516 8.57584V20.1955L163.831 8.57584H156.481V24.4624H161.43V12.8523L171.192 24.4624H178.465V8.57584H173.516Z" fill="#1E1E1E"/>
<path d="M0 9.86207C0 4.4154 4.4154 0 9.86207 0H27.1207C30.0647 0 32.7074 1.28996 34.5144 3.33549L28.022 8.74309C27.04 7.93743 25.5197 7.58621 23.4224 7.58621H12.6121C9.86207 7.58621 7.58621 8.81896 7.58621 12.3276V15.931H0V9.86207Z" fill="#1E1E1E"/>
<path d="M29.0992 10.3141C29.2986 10.8834 29.3966 11.5516 29.3966 12.3276V21.431C29.3966 24.6552 28.5431 25.4138 23.4224 25.4138H12.6121C8.62931 25.4138 7.58621 23.7069 7.58621 21.431V17.8276H0V23.1379C0 28.5846 4.4154 33 9.86207 33H27.1207C32.5674 33 36.9828 28.5846 36.9828 23.1379V9.86207C36.9828 8.04228 36.4899 6.3376 35.6303 4.87427L29.0992 10.3141Z" fill="#1E1E1E"/>
</svg>
