<svg width="154" height="65" viewBox="0 0 154 65" fill="none" xmlns="http://www.w3.org/2000/svg">
<g clip-path="url(#clip0_1091_505)">
<path d="M153.646 64.6919H72.5136V62.4133H153.646V64.6919Z" fill="#1E1E1E"/>
<path d="M72.534 5.28436C72.534 2.82318 74.4876 0.681396 77.6676 0.681396C79.7124 0.681396 81.3474 1.3651 82.3476 2.4364L80.3946 5.1704C79.6902 4.50997 79.167 4.09911 77.9862 4.09911C76.986 4.09911 76.3956 4.55491 76.3956 5.28436C76.3956 7.92766 83.0292 7.2897 83.0292 12.4857C83.0292 15.2663 80.6436 17.1793 77.577 17.1793C75.4422 17.1793 72.9654 16.2685 72.1932 14.5593L74.2602 12.0748C75.1692 13.2376 76.5546 13.7617 77.6676 13.7617C78.6222 13.7617 79.167 13.2826 79.167 12.5306C79.167 10.1385 72.534 10.4346 72.534 5.28436Z" fill="#1E1E1E"/>
<path d="M89.6184 4.3724V8.01879C90.1416 8.08704 90.7542 8.13278 91.2768 8.13278C92.2308 8.13278 93.4116 7.7219 93.4116 6.17231C93.4116 4.75999 92.5038 4.32665 91.2084 4.32665C90.732 4.32665 90.3678 4.34992 89.6184 4.3724ZM85.9836 16.9054V0.954676C86.8692 0.954676 89.6184 0.908936 90.8454 0.908936C95.6838 0.908936 97.2744 3.43832 97.2744 6.1956C97.2744 9.04357 95.0712 11.5505 91.3902 11.5505C91.0494 11.5505 90.1872 11.5505 89.6184 11.4823V16.9054H85.9836Z" fill="#1E1E1E"/>
<path d="M100.457 0.95459H104.092V16.9053H100.457V0.95459Z" fill="#1E1E1E"/>
<path d="M108.407 0.95459H117.836V4.37231H112.042V7.17533H117.154V10.5939H112.042V13.4876H118.062V16.9053H108.407V0.95459Z" fill="#1E1E1E"/>
<path d="M121.472 0.95459H130.672V4.37231H125.106V7.74511H129.99V11.1636H125.106V16.9053H121.472V0.95459Z" fill="#1E1E1E"/>
<path d="M72.519 23.2196C72.519 22.1964 73.3158 21.3386 74.637 21.3386C75.4722 21.3386 76.1724 21.6211 76.5804 22.0688L75.939 22.966C75.609 22.6442 75.279 22.4597 74.7348 22.4597C74.142 22.4597 73.782 22.7622 73.782 23.21C73.782 24.6231 76.8618 24.1738 76.8618 26.4455C76.8618 27.5955 75.861 28.3763 74.5884 28.3763C73.7142 28.3763 72.6942 27.9951 72.3636 27.3034L73.0434 26.484C73.4418 27.0016 74.0838 27.2544 74.6082 27.2544C75.1716 27.2544 75.5994 26.972 75.5994 26.4551C75.5994 25.1094 72.519 25.4425 72.519 23.2196Z" fill="#1E1E1E"/>
<path d="M77.5932 21.4458H83.1996V22.566H80.994V28.2684H79.7988V22.566H77.5932V21.4458Z" fill="#1E1E1E"/>
<path d="M84.0276 26.8167C84.4446 26.8167 84.7374 27.1962 84.7374 27.5373C84.7374 27.9377 84.4446 28.3165 84.0276 28.3165C83.5422 28.3165 83.2494 27.9377 83.2494 27.5373C83.2494 27.1962 83.5422 26.8167 84.0276 26.8167Z" fill="#1E1E1E"/>
<path d="M89.3634 22.566V24.6613C89.6448 24.691 89.937 24.711 90.2088 24.711C90.918 24.711 91.4712 24.37 91.4712 23.61C91.4712 22.8982 91.0344 22.5476 90.2178 22.5476C89.976 22.5476 89.6832 22.5564 89.3634 22.566ZM88.1682 28.2676V21.4458C88.5474 21.4458 89.6256 21.4265 90.102 21.4265C92.1036 21.4265 92.7354 22.4986 92.7354 23.6189C92.7354 24.7792 91.8696 25.8313 90.2472 25.8313C90.0432 25.8313 89.6544 25.8313 89.3634 25.8024V28.2676H88.1682Z" fill="#1E1E1E"/>
<path d="M94.311 21.4458H98.2464V22.566H95.5056V24.2625H97.9554V25.3835H95.5056V27.1473H98.343V28.2684H94.311V21.4458Z" fill="#1E1E1E"/>
<path d="M99.2496 21.4458H104.856V22.566H102.65V28.2684H101.455V22.566H99.2496V21.4458Z" fill="#1E1E1E"/>
<path d="M106.091 21.4458H110.027V22.566H107.286V24.2625H109.735V25.3835H107.286V27.1473H110.123V28.2684H106.091V21.4458Z" fill="#1E1E1E"/>
<path d="M113.071 22.566V24.5939H113.847C114.538 24.5939 115.15 24.2432 115.15 23.541C115.15 23.005 114.857 22.5476 113.887 22.5476C113.662 22.5476 113.39 22.5564 113.071 22.566ZM111.875 28.2676V21.4458C112.253 21.4458 113.75 21.4265 113.944 21.4265C115.8 21.4265 116.413 22.3517 116.413 23.5314C116.413 24.7006 115.664 25.2856 115.1 25.4814L117.228 28.2676H115.781L113.906 25.7149H113.071V28.2676H111.875Z" fill="#1E1E1E"/>
<path d="M118.115 23.2196C118.115 22.1964 118.912 21.3386 120.232 21.3386C121.069 21.3386 121.768 21.6211 122.176 22.0688L121.535 22.966C121.204 22.6442 120.875 22.4597 120.331 22.4597C119.737 22.4597 119.378 22.7622 119.378 23.21C119.378 24.6231 122.458 24.1738 122.458 26.4455C122.458 27.5955 121.458 28.3763 120.184 28.3763C119.31 28.3763 118.29 27.9951 117.959 27.3034L118.64 26.484C119.037 27.0016 119.68 27.2544 120.205 27.2544C120.767 27.2544 121.196 26.972 121.196 26.4551C121.196 25.1094 118.115 25.4425 118.115 23.2196Z" fill="#1E1E1E"/>
<path d="M125.23 25.3347V27.1378C125.395 27.1571 125.677 27.1868 126.016 27.1868C126.823 27.1868 127.26 26.845 127.26 26.2022C127.26 25.6268 126.823 25.3347 126.076 25.3347H125.23ZM125.23 22.5662V24.2915H126.036C126.59 24.2915 127.046 24.0098 127.046 23.3855C127.046 22.8294 126.619 22.5381 125.978 22.5381C125.706 22.5381 125.444 22.5469 125.23 22.5662ZM124.034 21.4652C124.413 21.4451 125.317 21.4163 125.997 21.4163C127.62 21.4163 128.232 22.1569 128.232 23.1022C128.232 23.8822 127.844 24.3798 127.26 24.6518V24.6719C127.931 24.8372 128.455 25.3539 128.455 26.26C128.455 27.6643 127.367 28.307 125.93 28.307C125.308 28.307 124.433 28.2886 124.034 28.2589V21.4652Z" fill="#1E1E1E"/>
<path d="M135.725 25.4421C135.725 27.5285 134.453 28.3759 133.024 28.3759C131.334 28.3759 130.129 27.3712 130.129 25.3731V21.4458H131.324V25.1203C131.324 26.3962 131.848 27.2549 133.024 27.2549C134.055 27.2549 134.54 26.5238 134.54 25.1973V21.4458H135.725V25.4421Z" fill="#1E1E1E"/>
<path d="M138.916 22.566V24.5939H139.693C140.383 24.5939 140.995 24.2432 140.995 23.541C140.995 23.005 140.703 22.5476 139.732 22.5476C139.508 22.5476 139.235 22.5564 138.916 22.566ZM137.72 28.2676V21.4458C138.099 21.4458 139.595 21.4265 139.789 21.4265C141.645 21.4265 142.258 22.3517 142.258 23.5314C142.258 24.7006 141.509 25.2856 140.945 25.4814L143.073 28.2676H141.627L139.751 25.7149H138.916V28.2676H137.72Z" fill="#1E1E1E"/>
<path d="M146.857 24.5942H149.615V27.4197C149.012 28.0248 147.915 28.3763 147.07 28.3763C144.844 28.3763 143.523 26.9816 143.523 24.8575C143.523 22.8986 144.835 21.3386 146.914 21.3386C147.886 21.3386 148.547 21.5922 149.101 22.0303L148.595 22.9861C148.255 22.6643 147.652 22.4597 147.059 22.4597C145.748 22.4597 144.786 23.3368 144.786 24.8575C144.786 26.3091 145.709 27.2544 147.089 27.2544C147.614 27.2544 148.245 27.0305 148.498 26.7866V25.7145H146.857V24.5942Z" fill="#1E1E1E"/>
<path d="M72.5292 31.3167H73.7244V38.1392H72.5292V31.3167Z" fill="#1E1E1E"/>
<path d="M80.8086 38.1388L77.0676 33.4114V38.1388H75.9504V31.3162H76.902L80.643 36.062V31.3162H81.7596V38.1388H80.8086Z" fill="#1E1E1E"/>
<path d="M82.998 31.3162H88.6044V32.4365H86.3976V38.1388H85.2024V32.4365H82.998V31.3162Z" fill="#1E1E1E"/>
<path d="M89.8398 31.3162H93.774V32.4365H91.035V34.1328H93.4836V35.2531H91.035V37.0177H93.8718V38.1388H89.8398V31.3162Z" fill="#1E1E1E"/>
<path d="M96.8184 32.4373V34.4635H97.5966C98.2854 34.4635 98.898 34.1136 98.898 33.4123C98.898 32.8762 98.6052 32.4172 97.6344 32.4172C97.4112 32.4172 97.1382 32.4268 96.8184 32.4373ZM95.6232 38.1388V31.317C96.0024 31.317 97.4988 31.2961 97.6932 31.2961C99.5484 31.2961 100.16 32.2222 100.16 33.4018C100.16 34.5718 99.4128 35.1568 98.8494 35.351L100.976 38.1388H99.5292L97.6542 35.5854H96.8184V38.1388H95.6232Z" fill="#1E1E1E"/>
<path d="M107.071 38.1388L103.329 33.4114V38.1388H102.212V31.3162H103.165L106.906 36.062V31.3162H108.023V38.1388H107.071Z" fill="#1E1E1E"/>
<path d="M111.602 35.2732H113.594L112.603 32.8465L111.602 35.2732ZM112.108 31.2961H113.156L116.033 38.1388H114.76L114.05 36.3934H111.146L110.436 38.1388H109.231L112.108 31.2961Z" fill="#1E1E1E"/>
<path d="M115.802 31.3162H121.408V32.4365H119.203V38.1388H118.007V32.4365H115.802V31.3162Z" fill="#1E1E1E"/>
<path d="M122.789 31.3167H123.985V38.1392H122.789V31.3167Z" fill="#1E1E1E"/>
<path d="M129.243 37.1249C130.672 37.1249 131.526 36.072 131.526 34.7271C131.526 33.3139 130.525 32.3285 129.243 32.3285C127.94 32.3285 126.968 33.3139 126.968 34.7271C126.968 36.0921 127.97 37.1249 129.243 37.1249ZM129.243 31.2083C131.264 31.2083 132.79 32.6021 132.79 34.7271C132.79 36.7742 131.264 38.2451 129.243 38.2451C127.222 38.2451 125.706 36.852 125.706 34.7271C125.706 32.749 127.154 31.2083 129.243 31.2083Z" fill="#1E1E1E"/>
<path d="M139.224 38.1388L135.482 33.4114V38.1388H134.366V31.3162H135.319L139.06 36.062V31.3162H140.176V38.1388H139.224Z" fill="#1E1E1E"/>
<path d="M143.755 35.2732H145.747L144.756 32.8465L143.755 35.2732ZM144.26 31.2961H145.309L148.186 38.1388H146.912L146.203 36.3934H143.299L142.589 38.1388H141.384L144.26 31.2961Z" fill="#1E1E1E"/>
<path d="M149.404 31.3162H150.599V37.0177H153.659V38.1388H149.404V31.3162Z" fill="#1E1E1E"/>
<path d="M72.5286 41.186H76.4634V42.3079H73.7238V44.0035H76.1724V45.1246H73.7238V46.8876H76.5606V48.0094H72.5286V41.186Z" fill="#1E1E1E"/>
<path d="M83.4906 47.3467C83.0634 47.8041 82.1982 48.1163 81.3138 48.1163C79.2354 48.1163 77.8062 46.7232 77.8062 44.5975C77.8062 42.6386 79.0392 41.0786 81.285 41.0786C82.1694 41.0786 82.9074 41.3611 83.3544 41.7712L82.8198 42.6579C82.4112 42.3843 81.9648 42.1997 81.285 42.1997C80.0214 42.1997 79.0698 43.1169 79.0698 44.5975C79.0698 46.021 80.0322 46.996 81.4206 46.996C81.9942 46.996 82.5678 46.8099 83.0334 46.4495L83.4906 47.3467Z" fill="#1E1E1E"/>
<path d="M87.6222 46.9962C89.0502 46.9962 89.9058 45.9433 89.9058 44.5984C89.9058 43.1844 88.9056 42.1998 87.6222 42.1998C86.3208 42.1998 85.3488 43.1844 85.3488 44.5984C85.3488 45.9626 86.349 46.9962 87.6222 46.9962ZM87.6222 41.0796C89.643 41.0796 91.1694 42.4726 91.1694 44.5984C91.1694 46.6455 89.643 48.1164 87.6222 48.1164C85.6014 48.1164 84.0846 46.7233 84.0846 44.5984C84.0846 42.6195 85.5336 41.0796 87.6222 41.0796Z" fill="#1E1E1E"/>
<path d="M97.6038 48.0094L93.8628 43.2821V48.0094H92.7462V41.186H93.6978L97.4394 45.9334V41.186H98.5566V48.0094H97.6038Z" fill="#1E1E1E"/>
<path d="M103.67 46.9962C105.098 46.9962 105.953 45.9433 105.953 44.5984C105.953 43.1844 104.954 42.1998 103.67 42.1998C102.369 42.1998 101.397 43.1844 101.397 44.5984C101.397 45.9626 102.397 46.9962 103.67 46.9962ZM103.67 41.0796C105.691 41.0796 107.218 42.4726 107.218 44.5984C107.218 46.6455 105.691 48.1164 103.67 48.1164C101.65 48.1164 100.133 46.7233 100.133 44.5984C100.133 42.6195 101.582 41.0796 103.67 41.0796Z" fill="#1E1E1E"/>
<path d="M108.794 41.186H109.999L112.32 44.3742L114.536 41.186H115.663V48.0094H114.478V43.0775L112.33 46.1092H112.156L109.989 43.1071V48.0094H108.794V41.186Z" fill="#1E1E1E"/>
<path d="M117.89 41.1855H119.086V48.009H117.89V41.1855Z" fill="#1E1E1E"/>
<path d="M126.491 47.3467C126.064 47.8041 125.199 48.1163 124.315 48.1163C122.236 48.1163 120.807 46.7232 120.807 44.5975C120.807 42.6386 122.04 41.0786 124.286 41.0786C125.17 41.0786 125.908 41.3611 126.355 41.7712L125.821 42.6579C125.412 42.3843 124.966 42.1997 124.286 42.1997C123.022 42.1997 122.071 43.1169 122.071 44.5975C122.071 46.021 123.033 46.996 124.421 46.996C124.995 46.996 125.569 46.8099 126.034 46.4495L126.491 47.3467Z" fill="#1E1E1E"/>
<path d="M72.5286 51.0569H76.4148V52.1772H73.7238V54.1071H76.1238V55.2281H73.7238V57.8795H72.5286V51.0569Z" fill="#1E1E1E"/>
<path d="M81.0618 56.8655C82.4898 56.8655 83.3448 55.8135 83.3448 54.4685C83.3448 53.0553 82.3434 52.0707 81.0618 52.0707C79.7592 52.0707 78.7872 53.0553 78.7872 54.4685C78.7872 55.8327 79.788 56.8655 81.0618 56.8655ZM81.0618 50.9497C83.0814 50.9497 84.6078 52.3436 84.6078 54.4685C84.6078 56.5148 83.0814 57.9866 81.0618 57.9866C79.0398 57.9866 77.5242 56.5927 77.5242 54.4685C77.5242 52.4896 78.9726 50.9497 81.0618 50.9497Z" fill="#1E1E1E"/>
<path d="M87.3804 52.1774V54.2044H88.1574C88.848 54.2044 89.46 53.8546 89.46 53.1524C89.46 52.6164 89.1678 52.1581 88.1964 52.1581C87.9726 52.1581 87.7008 52.1677 87.3804 52.1774ZM86.1852 57.879V51.0571C86.5638 51.0571 88.0608 51.0371 88.254 51.0371C90.1104 51.0371 90.723 51.9623 90.723 53.1427C90.723 54.312 89.9742 54.897 89.4102 55.092L91.5384 57.879H90.0918L88.2156 55.3263H87.3804V57.879H86.1852Z" fill="#1E1E1E"/>
<path d="M98.2746 55.0526C98.2746 57.1382 97.0008 57.9865 95.5728 57.9865C93.8826 57.9865 92.6778 56.9826 92.6778 54.9845V51.0571H93.873V54.7308C93.873 56.0084 94.3974 56.8654 95.5728 56.8654C96.603 56.8654 97.089 56.1352 97.089 54.8087V51.0571H98.2746V55.0526Z" fill="#1E1E1E"/>
<path d="M100.269 51.0569H101.474L103.795 54.2443L106.012 51.0569H107.14V57.8795H105.953V52.9467L103.806 55.9785H103.631L101.464 52.9772V57.8795H100.269V51.0569Z" fill="#1E1E1E"/>
<path d="M30 0.418213C14.0296 0.418213 1.08322 13.4013 1.08322 29.4202C1.08322 45.4391 14.0296 58.4231 30 58.4231C45.9664 58.4231 58.912 45.4391 58.912 29.4202C58.912 13.4013 45.9664 0.418213 30 0.418213Z" fill="#1E1E1E"/>
<path d="M31.3018 34.7099H32.7186L34.9746 31.3435H33.561L31.3018 34.7099Z" fill="white"/>
<path d="M29.3597 10.4489C29.7957 10.4489 30.1493 10.0926 30.1493 9.65687C30.1493 9.21956 29.7957 8.86646 29.3597 8.86646C28.9245 8.86646 28.5725 9.21956 28.5725 9.65687C28.5725 10.0926 28.9245 10.4489 29.3597 10.4489Z" fill="white"/>
<path d="M28.8455 11.5894V14.9445H33.5504L32.588 13.2224L33.5504 11.5894H28.8455Z" fill="white"/>
<path d="M34.798 28.7171C35.4013 26.7559 35.7277 24.6639 35.7277 22.4924C35.7277 20.3193 35.4013 18.2297 34.798 16.2668H23.8732C24.4772 18.2297 24.8044 20.3193 24.8044 22.4924C24.8044 24.6639 24.4772 26.7559 23.8732 28.7171H34.798Z" fill="white"/>
<path d="M40.5631 16.8533V20.2092H45.2671L44.3063 18.4847L45.2671 16.8533H40.5631Z" fill="white"/>
<path d="M35.7786 34.7099L38.0322 31.3435H36.6707L34.4154 34.7099H35.7786Z" fill="white"/>
<path d="M46.121 29.9938C46.4162 28.6304 46.573 27.2132 46.573 25.76C46.573 24.3043 46.4162 22.8887 46.121 21.5229H37.825C38.1218 22.8887 38.2794 24.3043 38.2794 25.76C38.2794 27.2132 38.1202 28.6304 37.825 29.9938H46.121Z" fill="white"/>
<path d="M41.2064 15.7458C41.6424 15.7458 41.996 15.3919 41.996 14.9569C41.996 14.5196 41.6424 14.1665 41.2064 14.1665C40.7712 14.1665 40.4184 14.5196 40.4184 14.9569C40.4184 15.3919 40.7712 15.7458 41.2064 15.7458Z" fill="white"/>
<path d="M41.8595 31.3254H40.5795V34.7071H41.8595V31.3254Z" fill="white"/>
<path d="M30.0022 30.0374H28.7079V34.7094H30.0022V30.0374Z" fill="white"/>
<path d="M15.9081 32.9731L16.8681 31.3433H12.2993V34.7H16.8681L15.9081 32.9731Z" fill="white"/>
<path d="M24.3519 34.6981L27.4479 30.0229H26.0255L22.9311 34.6981H24.3519Z" fill="white"/>
<path d="M49.1903 31.343H44.4872V34.7005H49.1903L48.2303 32.9728L49.1903 31.343Z" fill="white"/>
<path d="M20.8975 30.0226C21.1919 28.652 21.3479 27.23 21.3479 25.7695C21.3479 24.309 21.1919 22.8838 20.8975 21.5132H12.5975C12.8951 22.8838 13.0527 24.309 13.0527 25.7695C13.0527 27.23 12.8951 28.652 12.5975 30.0226H20.8975Z" fill="white"/>
<path d="M16.2412 15.7563C16.6756 15.7563 17.03 15.4024 17.03 14.9667C17.03 14.5285 16.6756 14.1763 16.2412 14.1763C15.8084 14.1763 15.4516 14.5285 15.4516 14.9667C15.4516 15.4024 15.8084 15.7563 16.2412 15.7563Z" fill="white"/>
<path d="M15.5729 16.8533V20.2092H20.2777L19.3168 18.4847L20.2777 16.8533H15.5729Z" fill="white"/>
<path d="M21.3984 34.6981L24.3631 30.0229H22.9536L19.9855 34.6981H21.3984Z" fill="white"/>
<path d="M26.085 38.6707H24.7882V37.3699H26.085V38.6707ZM24.7698 41.2996H23.473V39.9875H24.7698V41.2996ZM23.4426 38.6707H22.1482V37.3699H23.4426V38.6707ZM22.1482 41.2996H20.8242V39.9875H22.1482V41.2996ZM19.505 37.3699H20.8234V38.6707H19.505V37.3699ZM32.6722 37.3547H33.9666V38.6707H32.6722V37.3547ZM33.9762 39.9899H35.301V41.2908H33.9762V39.9899ZM35.2834 37.3547H36.5778V38.6707H35.2834V37.3547ZM36.5842 39.9899H37.909V41.2908H36.5842V39.9899ZM37.8938 37.3547H39.2338V38.6707H37.8938V37.3547ZM40.573 44.5408L47.1218 36.0105H12.9274L14.0186 38.0135C14.0186 38.0135 16.5114 39.5373 16.8394 40.9497C17.0762 41.8846 16.3482 42.3299 16.1026 42.4383L16.9394 44.5408H28.7082V47.5837C28.0506 47.814 27.5634 48.4736 27.5634 49.2456C27.5634 50.2415 28.369 51.0504 29.3602 51.0504C30.3538 51.0504 31.1578 50.2415 31.1578 49.2456C31.1578 48.4736 30.7026 47.814 30.0362 47.5605V44.5408H40.573Z" fill="white"/>
</g>
<defs>
<clipPath id="clip0_1091_505">
<rect width="153" height="65" fill="white" transform="translate(0.666626)"/>
</clipPath>
</defs>
</svg>
