<svg width="185" height="31" viewBox="0 0 185 31" fill="none" xmlns="http://www.w3.org/2000/svg">
<path d="M9.51102 20.0054C9.53485 20.0072 9.55879 20.0041 9.58143 19.9965C9.60408 19.9889 9.62498 19.9769 9.6429 19.9611C9.66083 19.9453 9.67542 19.9261 9.68581 19.9045C9.6962 19.883 9.7022 19.8597 9.70343 19.8358V11.1447C9.7022 11.1208 9.6962 11.0975 9.68581 11.0759C9.67542 11.0544 9.66083 11.0352 9.6429 11.0194C9.62498 11.0036 9.60408 10.9916 9.58143 10.9839C9.55879 10.9763 9.53485 10.9733 9.51102 10.9751H0.859037C0.835211 10.9733 0.811273 10.9763 0.788625 10.9839C0.765978 10.9916 0.745078 11.0036 0.727154 11.0194C0.70923 11.0352 0.694643 11.0544 0.684249 11.0759C0.673855 11.0975 0.667864 11.1208 0.666626 11.1447V19.8391C0.667864 19.8629 0.673855 19.8863 0.684249 19.9078C0.694643 19.9293 0.70923 19.9485 0.727154 19.9643C0.745078 19.9801 0.765978 19.9922 0.788625 19.9998C0.811273 20.0074 0.835211 20.0104 0.859037 20.0086L9.51102 20.0054Z" fill="#1E1E1E"/>
<path d="M31.4459 20.0054C31.4697 20.0072 31.4937 20.0041 31.5163 19.9965C31.539 19.9889 31.5599 19.9769 31.5778 19.9611C31.5957 19.9453 31.6103 19.9261 31.6207 19.9045C31.6311 19.883 31.6371 19.8597 31.6383 19.8358V11.1447C31.6371 11.1208 31.6311 11.0975 31.6207 11.0759C31.6103 11.0544 31.5957 11.0352 31.5778 11.0194C31.5599 11.0036 31.539 10.9916 31.5163 10.9839C31.4937 10.9763 31.4697 10.9733 31.4459 10.9751H22.8037C22.7799 10.9733 22.7559 10.9763 22.7333 10.9839C22.7106 10.9916 22.6897 11.0036 22.6718 11.0194C22.6539 11.0352 22.6393 11.0544 22.6289 11.0759C22.6185 11.0975 22.6125 11.1208 22.6113 11.1447V19.8391C22.6125 19.8629 22.6185 19.8863 22.6289 19.9078C22.6393 19.9293 22.6539 19.9485 22.6718 19.9643C22.6897 19.9801 22.7106 19.9922 22.7333 19.9998C22.7559 20.0074 22.7799 20.0104 22.8037 20.0086L31.4459 20.0054Z" fill="#1E1E1E"/>
<path d="M20.4848 30.9826C20.5087 30.9844 20.5327 30.9813 20.5554 30.9734C20.5781 30.9656 20.5989 30.9532 20.6166 30.937C20.6344 30.9208 20.6486 30.9012 20.6584 30.8793C20.6683 30.8574 20.6735 30.8337 20.6739 30.8098V22.1186C20.6735 22.0947 20.6683 22.071 20.6584 22.0491C20.6486 22.0272 20.6344 22.0076 20.6166 21.9914C20.5989 21.9752 20.5781 21.9628 20.5554 21.955C20.5327 21.9471 20.5087 21.944 20.4848 21.9458H11.8328C11.8087 21.944 11.7845 21.9471 11.7617 21.955C11.7388 21.9628 11.7178 21.9751 11.6998 21.9912C11.6818 22.0074 11.6673 22.027 11.6571 22.0489C11.6469 22.0708 11.6412 22.0945 11.6404 22.1186V30.8098C11.6412 30.8339 11.6469 30.8576 11.6571 30.8795C11.6673 30.9014 11.6818 30.921 11.6998 30.9372C11.7178 30.9533 11.7388 30.9656 11.7617 30.9735C11.7845 30.9813 11.8087 30.9844 11.8328 30.9826H20.4848Z" fill="#1E1E1E"/>
<path d="M31.6481 22.1186C31.6453 22.095 31.6378 22.0721 31.6261 22.0514C31.6143 22.0307 31.5986 22.0126 31.5798 21.998C31.561 21.9834 31.5394 21.9727 31.5165 21.9666C31.4935 21.9604 31.4695 21.9589 31.4459 21.9621H22.8037C22.7796 21.9603 22.7554 21.9634 22.7326 21.9712C22.7097 21.979 22.6887 21.9914 22.6707 22.0075C22.6527 22.0237 22.6382 22.0433 22.628 22.0652C22.6178 22.087 22.6121 22.1108 22.6113 22.1349V30.826C22.6121 30.8502 22.6178 30.8739 22.628 30.8958C22.6382 30.9177 22.6527 30.9373 22.6707 30.9534C22.6887 30.9696 22.7097 30.9819 22.7326 30.9897C22.7554 30.9975 22.7796 31.0006 22.8037 30.9989H31.1361C31.1999 31.0033 31.2639 30.9949 31.3243 30.9742C31.3848 30.9535 31.4405 30.921 31.4883 30.8784C31.536 30.8359 31.5747 30.7842 31.6021 30.7265C31.6296 30.6688 31.6452 30.6062 31.6481 30.5423V22.1186Z" fill="#1E1E1E"/>
<path d="M9.51102 30.9826C9.53511 30.9844 9.55931 30.9813 9.58216 30.9734C9.60502 30.9656 9.62606 30.9533 9.64403 30.9372C9.662 30.921 9.67653 30.9014 9.68673 30.8795C9.69694 30.8576 9.70262 30.8339 9.70343 30.8098V22.1186C9.70262 22.0945 9.69694 22.0708 9.68673 22.0489C9.67653 22.027 9.662 22.0074 9.64403 21.9912C9.62606 21.9751 9.60502 21.9628 9.58216 21.9549C9.55931 21.9471 9.53511 21.944 9.51102 21.9458H0.859037C0.834949 21.944 0.810751 21.9471 0.787895 21.9549C0.765039 21.9628 0.743994 21.9751 0.726026 21.9912C0.708057 22.0074 0.693534 22.027 0.683327 22.0489C0.67312 22.0708 0.667439 22.0945 0.666626 22.1186V30.526C0.669517 30.5899 0.685149 30.6525 0.7126 30.7102C0.740051 30.768 0.778767 30.8196 0.826473 30.8622C0.874179 30.9047 0.92991 30.9373 0.990388 30.9579C1.05087 30.9786 1.11487 30.987 1.17864 30.9826H9.51102Z" fill="#1E1E1E"/>
<path d="M31.6481 8.8651C31.6473 8.88924 31.6416 8.91296 31.6314 8.93486C31.6212 8.95675 31.6067 8.97635 31.5887 8.99249C31.5707 9.00863 31.5497 9.02098 31.5268 9.02879C31.504 9.0366 31.4798 9.03971 31.4557 9.03794H20.8665C20.8427 9.03617 20.8188 9.03918 20.7961 9.04679C20.7735 9.0544 20.7526 9.06646 20.7347 9.08225C20.7167 9.09805 20.7022 9.11727 20.6918 9.13878C20.6814 9.16029 20.6754 9.18366 20.6741 9.20752V19.8391C20.6733 19.8628 20.6677 19.8861 20.6577 19.9076C20.6476 19.9291 20.6334 19.9483 20.6157 19.9642C20.598 19.98 20.5773 19.9921 20.5549 19.9997C20.5324 20.0074 20.5086 20.0104 20.485 20.0086H11.833C11.8092 20.0104 11.7852 20.0074 11.7626 19.9998C11.7399 19.9922 11.719 19.9801 11.7011 19.9643C11.6832 19.9485 11.6686 19.9293 11.6582 19.9078C11.6478 19.8863 11.6418 19.8629 11.6406 19.8391V9.20752C11.6394 9.18366 11.6334 9.16029 11.623 9.13878C11.6126 9.11727 11.598 9.09805 11.5801 9.08225C11.5621 9.06646 11.5412 9.0544 11.5186 9.04679C11.4959 9.03918 11.472 9.03617 11.4482 9.03794H0.859037C0.834949 9.03971 0.810751 9.0366 0.787895 9.02879C0.765039 9.02098 0.743994 9.00863 0.726026 8.99249C0.708057 8.97635 0.693534 8.95675 0.683327 8.93486C0.67312 8.91296 0.667439 8.88924 0.666626 8.8651V0.460965C0.669094 0.396832 0.684414 0.333848 0.711678 0.275747C0.738942 0.217645 0.777596 0.16561 0.825346 0.122726C0.873096 0.0798421 0.928971 0.0469819 0.989658 0.0260956C1.05034 0.00520921 1.11461 -0.00327857 1.17864 0.0011349H31.1361C31.2001 -0.00327857 31.2644 0.00520921 31.3251 0.0260956C31.3858 0.0469819 31.4416 0.0798421 31.4894 0.122726C31.5371 0.16561 31.5758 0.217645 31.603 0.275747C31.6303 0.333848 31.6456 0.396832 31.6481 0.460965V8.8651Z" fill="#1E1E1E"/>
<path d="M62.9981 7.52128H56.3159C55.5854 7.52128 55.2919 7.15603 55.2919 6.42552V3.72198C55.2919 3.10235 55.618 2.80884 56.2702 2.80884H75.9288C76.6593 2.80884 76.9071 3.17409 76.8419 3.72198L76.5484 6.60814C76.4767 7.33865 76.0005 7.52128 75.2439 7.52128H68.8063V27.1342C68.8063 27.7212 68.5519 28.1582 67.8279 28.1582H64.0221C63.2916 28.1582 62.9981 27.8321 62.9981 27.0983V7.52128Z" fill="#1E1E1E"/>
<path d="M83.4164 3.72198C83.6349 3.17409 83.9642 2.80884 84.6589 2.80884H88.5169C89.2115 2.80884 89.5409 3.17409 89.7594 3.72198L98.5973 26.8766C98.8549 27.5288 98.7082 28.1549 97.945 28.1549H93.862C92.9848 28.1549 92.6586 27.7538 92.4369 27.1309L90.9758 22.8914H81.9553L80.4943 27.2744C80.448 27.5311 80.31 27.7622 80.106 27.9247C79.9021 28.0873 79.646 28.1703 79.3855 28.1582H75.4721C74.7024 28.1582 74.5589 27.5386 74.8198 26.8798L83.4164 3.72198ZM89.4072 18.5148L87.1048 11.3206C86.8504 10.5151 86.6287 9.8237 86.4526 9.2008H86.3775C86.1949 9.85305 85.9764 10.5542 85.7253 11.3565L83.4229 18.5311L89.4072 18.5148Z" fill="#1E1E1E"/>
<path d="M108.984 28.6346C106.386 28.6141 103.808 28.1736 101.35 27.3301C100.698 27.1116 100.473 26.7464 100.73 25.9441L101.709 22.9862C101.82 22.6209 102.002 22.2916 102.475 22.2916C102.69 22.2989 102.902 22.3487 103.098 22.4383C104.919 23.1353 106.846 23.518 108.795 23.57C110.328 23.57 112.265 22.8036 112.265 21.0132C112.265 19.6239 111.169 18.9293 110.038 18.4042L105.146 16.1377C102.446 14.8984 100.655 12.6351 100.655 9.56959C100.655 4.89628 105.332 2.26448 109.604 2.26448C112.08 2.2373 114.533 2.73525 116.802 3.72551C117.532 4.05163 117.715 4.37775 117.454 5.11478L116.322 7.96181C116.068 8.61406 115.67 8.73146 114.933 8.43795C112.999 7.63569 111.466 7.27044 109.966 7.27044C108.466 7.27044 106.861 7.81832 106.861 9.53372C106.861 10.7012 108.322 11.4317 109.236 11.8361L113.436 13.7342C116.325 15.0452 118.194 17.0182 118.194 20.3316C118.194 25.6017 113.987 28.6346 108.984 28.6346Z" fill="#1E1E1E"/>
<path d="M129.693 28.6346C127.095 28.6141 124.516 28.1736 122.059 27.3301C121.406 27.1116 121.185 26.7464 121.439 25.9441L122.417 22.9862C122.528 22.6209 122.711 22.2916 123.184 22.2916C123.399 22.2989 123.611 22.3487 123.807 22.4383C125.628 23.135 127.554 23.5176 129.504 23.57C131.037 23.57 132.974 22.8036 132.974 21.0132C132.974 19.6239 131.878 18.9292 130.746 18.4042L125.855 16.1377C123.154 14.8984 121.364 12.6351 121.364 9.56958C121.364 4.89627 126.04 2.26448 130.316 2.26448C132.79 2.23736 135.242 2.73532 137.51 3.7255C138.241 4.05162 138.423 4.37774 138.162 5.11477L137.031 7.96181C136.776 8.61405 136.378 8.73145 135.645 8.43794C133.708 7.63569 132.175 7.27043 130.678 7.27043C129.181 7.27043 127.57 7.81832 127.57 9.53371C127.57 10.7012 129.031 11.4317 129.944 11.8361L134.145 13.7341C137.031 15.0386 138.893 17.0214 138.893 20.3446C138.896 25.6017 134.696 28.6346 129.693 28.6346Z" fill="#1E1E1E"/>
<path d="M148.429 7.52128H141.746C141.016 7.52128 140.722 7.15603 140.722 6.42552V3.72198C140.722 3.10235 141.049 2.80884 141.701 2.80884H161.35C162.08 2.80884 162.328 3.17409 162.263 3.72198L161.972 6.60814C161.897 7.33865 161.425 7.52128 160.668 7.52128H154.237V27.1342C154.237 27.7212 153.983 28.1582 153.259 28.1582H149.453C148.722 28.1582 148.429 27.8321 148.429 27.0983V7.52128Z" fill="#1E1E1E"/>
<path d="M168.847 3.72198C169.069 3.17409 169.395 2.80884 170.09 2.80884H173.961C174.655 2.80884 174.985 3.17409 175.203 3.72198L184.041 26.8766C184.299 27.5288 184.152 28.1549 183.389 28.1549H179.293C178.419 28.1549 178.089 27.7538 177.871 27.1309L176.41 22.8914H167.386L165.925 27.2744C165.88 27.5291 165.744 27.7587 165.542 27.9211C165.341 28.0835 165.088 28.1677 164.829 28.1582H160.916C160.149 28.1582 160.003 27.5386 160.264 26.8798L168.847 3.72198ZM174.838 18.5148L172.535 11.3206C172.281 10.5151 172.063 9.8237 171.883 9.2008H171.808C171.626 9.85305 171.407 10.5542 171.156 11.3565L168.854 18.5311L174.838 18.5148Z" fill="#1E1E1E"/>
</svg>
