<svg width="187" height="31" viewBox="0 0 187 31" xmlns="http://www.w3.org/2000/svg">
<path fill-rule="evenodd" clip-rule="evenodd" d="M0.577082 29.7396V23.8755C3.77833 24.926 6.61101 25.4512 9.07511 25.4512C12.4772 25.4512 14.1785 24.5136 14.1785 22.6398C14.1785 21.9412 13.9309 21.3541 13.4346 20.8788C12.9271 20.3746 11.6273 19.6757 9.5385 18.7802C5.79064 17.1734 3.34674 15.8032 2.20997 14.6698C0.736593 13.1739 0 11.2873 0 9.00757C0 6.07173 1.07338 3.83408 3.21864 2.29636C5.34016 0.772094 8.10271 0.0107422 11.5106 0.0107422C13.3883 0.0107422 16.1059 0.371044 19.6606 1.09262V6.73365C17.0157 5.63208 14.5606 5.08246 12.2923 5.08246C9.09811 5.08246 7.50113 5.99686 7.50113 7.82976C7.50113 8.51488 7.82277 9.07366 8.46699 9.50688C9.00274 9.85744 10.4789 10.5979 12.8923 11.7307C16.3674 13.3398 18.6807 14.7385 19.8334 15.9282C21.2011 17.3394 21.8863 19.1654 21.8863 21.4037C21.8863 24.6208 20.5442 27.0749 17.8619 28.7659C15.6887 30.1371 12.8708 30.8199 9.40984 30.8199C6.48703 30.8199 3.54215 30.4609 0.577082 29.7396Z"/>
<path fill-rule="evenodd" clip-rule="evenodd" d="M26.3788 0.5271H34.3338V30.2202H26.3788V0.5271Z"/>
<path fill-rule="evenodd" clip-rule="evenodd" d="M41.6292 30.2202V0.5271H62.0318V5.8977H49.2962V12.6025H60.3819V17.5013H49.2962V24.5476H62.36V30.2202H41.6292Z"/>
<path fill-rule="evenodd" clip-rule="evenodd" d="M67.5532 30.2202V0.5271H77.8672L85.0329 19.4997L92.3782 0.5271H102.175V30.2202H94.6325V9.19677L86.2803 30.5216H81.3493L73.158 9.19677V30.2202H67.5532Z"/>
<path fill-rule="evenodd" clip-rule="evenodd" d="M109.472 30.2202V0.5271H129.874V5.8977H117.14V12.6025H128.225V17.5013H117.14V24.5476H130.204V30.2202H109.472Z"/>
<path fill-rule="evenodd" clip-rule="evenodd" d="M135.439 30.2202V0.5271H144.659L154.44 20.4043V0.5271H160.043V30.2202H151.085L141.044 10.0755V30.2202H135.439Z"/>
<path fill-rule="evenodd" clip-rule="evenodd" d="M165.691 29.7395V23.8754C168.865 24.9259 171.697 25.4512 174.19 25.4512C177.593 25.4512 179.292 24.5136 179.292 22.6397C179.292 21.9411 179.051 21.3541 178.571 20.8788C178.061 20.3746 176.756 19.6756 174.655 18.7801C170.918 17.1866 168.472 15.817 167.324 14.6698C165.852 13.1871 165.117 11.2935 165.117 8.98724C165.117 6.06408 166.187 3.83383 168.335 2.29611C170.453 0.77185 173.219 0.010498 176.627 0.010498C178.543 0.010498 181.026 0.327712 184.072 0.965064L184.775 1.09238V6.7334C182.13 5.63183 179.667 5.08222 177.387 5.08222C174.205 5.08222 172.618 5.99662 172.618 7.82952C172.618 8.51464 172.938 9.07342 173.58 9.50664C174.091 9.84374 175.573 10.5846 178.027 11.7304C181.475 13.3395 183.784 14.7382 184.947 15.9279C186.317 17.3391 187 19.1652 187 21.4034C187 24.6206 185.666 27.0747 182.997 28.7656C180.811 30.1368 177.986 30.8196 174.526 30.8196C171.6 30.8198 168.654 30.4609 165.691 29.7395Z"/>
</svg>
