<svg width="24" height="24" viewBox="0 0 24 24" xmlns="http://www.w3.org/2000/svg">
<path fill-rule="evenodd" clip-rule="evenodd" d="M12 22C6.47715 22 2 17.5228 2 12C2 6.47715 6.47715 2 12 2C17.5228 2 22 6.47715 22 12C22 17.5228 17.5228 22 12 22ZM11.4878 19.9839C11.6572 19.9946 11.8279 20 12 20C12.1721 20 12.3428 19.9946 12.5122 19.9839C12.551 19.9285 12.5931 19.8673 12.638 19.8002C12.8965 19.4144 13.2463 18.8402 13.5975 18.1043C13.8845 17.5029 14.1708 16.7969 14.4092 16H9.59081C9.8292 16.7969 10.1155 17.5029 10.4025 18.1044C10.7537 18.8403 11.1035 19.4145 11.362 19.8003C11.4069 19.8673 11.449 19.9285 11.4878 19.9839ZM9.14637 14H14.8537C14.9463 13.3689 15 12.7008 15 11.9999C15 11.2991 14.9463 10.631 14.8537 10H9.14636C9.05372 10.631 9 11.2991 9 12C9 12.7008 9.05372 13.3689 9.14637 14ZM9.5908 8C9.82918 7.20311 10.1155 6.49708 10.4025 5.89563C10.7537 5.15974 11.1035 4.58554 11.362 4.19973C11.4069 4.13272 11.449 4.07148 11.4878 4.01613C11.6572 4.00543 11.8279 4 12 4C12.1721 4 12.3429 4.00543 12.5123 4.01614C12.551 4.07147 12.5931 4.13269 12.638 4.19968C12.8965 4.58549 13.2463 5.15969 13.5975 5.89559C13.8845 6.49705 14.1709 7.20309 14.4092 8H9.5908ZM16.8724 10C16.9538 10.6356 17 11.3033 17 11.9999C17 12.6966 16.9538 13.3643 16.8724 14H19.748C19.9125 13.3608 20 12.6906 20 12C20 11.3094 19.9125 10.6392 19.748 10H16.8724ZM18.9297 8H16.4855C16.1874 6.85316 15.7945 5.85551 15.4025 5.03422C15.344 4.91147 15.2853 4.79255 15.227 4.67754C16.7854 5.36534 18.0829 6.53604 18.9297 8ZM7.51452 8H5.07026C5.91713 6.53601 7.21461 5.36529 8.77305 4.6775C8.71471 4.79254 8.65609 4.91149 8.5975 5.03427C8.20558 5.85555 7.81263 6.85318 7.51452 8ZM4.25203 10H7.12761C7.04626 10.6356 7 11.3033 7 12C7 12.6966 7.04627 13.3643 7.12762 14H4.25204C4.08751 13.3608 4 12.6906 4 12C4 11.3094 4.08751 10.6392 4.25203 10ZM15.4025 18.9657C15.7944 18.1444 16.1874 17.1468 16.4855 16H18.9297C18.0828 17.464 16.7854 18.6347 15.227 19.3225C15.2853 19.2074 15.3439 19.0885 15.4025 18.9657ZM8.77306 19.3225C7.21462 18.6347 5.91714 17.464 5.07027 16H7.51453C7.81264 17.1468 8.20558 18.1444 8.59749 18.9657C8.65609 19.0885 8.71471 19.2075 8.77306 19.3225Z"/>
</svg>
