<svg width="24" height="24" viewBox="0 0 24 24" xmlns="http://www.w3.org/2000/svg">
<path fill-rule="evenodd" clip-rule="evenodd" d="M19.7501 21.1589C19.7664 21.1469 19.7822 21.1344 19.7975 21.1213C19.8131 21.108 19.8282 21.0941 19.8427 21.0796C22.3882 18.8784 24 15.6259 24 12C24 9.04682 22.9308 6.34131 21.1588 4.24979C21.1469 4.2336 21.1344 4.21786 21.1214 4.20258C21.1081 4.18705 21.0943 4.17206 21.0799 4.15761C18.8787 1.6119 15.626 0 12 0C9.047 0 6.34165 1.06905 4.25019 2.8409C4.23384 2.85286 4.21794 2.86543 4.20252 2.87862C4.18684 2.89202 4.17172 2.906 4.15714 2.92054C1.61171 5.1217 0 8.37418 0 12C0 14.9529 1.06902 17.6583 2.84082 19.7497C2.85282 19.7661 2.86545 19.7821 2.87869 19.7976C2.89215 19.8133 2.90619 19.8285 2.9208 19.8432C5.12196 22.3884 8.37432 24 12 24C14.9531 24 17.6586 22.9309 19.7501 21.1589ZM22 12C22 10.1541 21.4985 8.42413 20.6244 6.93913C19.7779 8.44532 18.2232 10.3548 16.1988 12.3286C17.8909 14.5923 19.1293 16.7196 19.7316 18.3389C21.1488 16.6129 22 14.4049 22 12ZM17.061 20.6244C15.5548 19.7778 13.6453 18.2231 11.6716 16.1987C9.40782 17.8909 7.2805 19.1293 5.66118 19.7316C7.38717 21.1488 9.59516 22 12 22C13.846 22 15.576 21.4985 17.061 20.6244ZM13.2554 14.9575C14.61 16.3318 15.9053 17.4468 17.0112 18.2242C17.2671 18.4041 17.5042 18.5598 17.7217 18.6931C17.6239 18.4574 17.507 18.199 17.3691 17.9182C16.7731 16.7049 15.8732 15.2519 14.7263 13.7001C14.4879 13.9125 14.2448 14.1247 13.9972 14.3363C13.7497 14.5479 13.5023 14.7551 13.2554 14.9575ZM13.4962 12.1171C13.2365 12.3499 12.9702 12.5831 12.6976 12.8161C12.4251 13.0491 12.1533 13.2759 11.883 13.4962C11.6503 13.2365 11.417 12.9701 11.184 12.6976C10.951 12.425 10.7242 12.1533 10.504 11.883C10.7636 11.6502 11.0299 11.4171 11.3024 11.1841C11.575 10.951 11.8468 10.7242 12.1172 10.5039C12.3499 10.7636 12.5831 11.0298 12.816 11.3024C13.0491 11.575 13.2759 11.8468 13.4962 12.1171ZM14.9575 10.7447C14.7551 10.4978 14.5479 10.2504 14.3363 10.0028C14.1247 9.75527 13.9125 9.51219 13.7002 9.27386C15.252 8.12689 16.705 7.22699 17.9183 6.63104C18.1991 6.49313 18.4575 6.37625 18.6932 6.27836C18.5598 6.49595 18.4042 6.73305 18.2243 6.98895C17.4468 8.09478 16.3319 9.39017 14.9575 10.7447ZM12.3286 7.80135C14.5924 6.10922 16.7197 4.87077 18.339 4.26852C16.613 2.85123 14.4049 2 12 2C10.1541 2 8.42411 2.50151 6.9391 3.37558C8.44532 4.22217 10.3548 5.77688 12.3286 7.80135ZM4.26847 5.66107C4.87074 7.2804 6.10922 9.40774 7.80139 11.6715C5.77694 13.6453 4.22223 15.5548 3.37564 17.061C2.50154 15.576 2 13.846 2 12C2 9.59511 2.85122 7.38707 4.26847 5.66107ZM9.2739 10.3C8.12689 8.74811 7.22695 7.29502 6.63098 6.0817C6.49307 5.80094 6.37619 5.5425 6.2783 5.30683C6.49589 5.44018 6.73299 5.59584 6.98889 5.77574C8.09475 6.55317 9.39018 7.66817 10.7448 9.04261C10.4979 9.24504 10.2504 9.4522 10.0029 9.66384C9.75532 9.87545 9.51224 10.0876 9.2739 10.3ZM9.04265 13.2554C7.66823 14.6099 6.55324 15.9054 5.7758 17.0112C5.59591 17.2671 5.44025 17.5042 5.3069 17.7218C5.54257 17.6239 5.80101 17.507 6.08176 17.3691C7.29509 16.7732 8.74817 15.8732 10.3 14.7262C10.0876 14.4878 9.87542 14.2447 9.66378 13.9971C9.45217 13.7496 9.24506 13.5022 9.04265 13.2554Z"/>
</svg>
